<svg width="36" height="36" viewBox="0 0 36 36" fill="none" xmlns="http://www.w3.org/2000/svg">
<circle cx="18" cy="18" r="18" transform="rotate(90 18 18)" fill="#5045EF"/>
<path d="M18.9694 25.2806C18.8997 25.2109 18.8443 25.1282 18.8066 25.0371C18.7689 24.9461 18.7494 24.8485 18.7494 24.7499C18.7494 24.6514 18.7689 24.5538 18.8066 24.4627C18.8443 24.3717 18.8997 24.289 18.9694 24.2193L24.4397 18.7499L9.75002 18.7499C9.55111 18.7499 9.36034 18.6709 9.21969 18.5303C9.07904 18.3896 9.00002 18.1988 9.00002 17.9999C9.00002 17.801 9.07904 17.6103 9.21969 17.4696C9.36034 17.3289 9.55111 17.2499 9.75002 17.2499L24.4397 17.2499L18.9694 11.7806C18.8287 11.6398 18.7496 11.449 18.7496 11.2499C18.7496 11.0509 18.8287 10.86 18.9694 10.7193C19.1101 10.5786 19.301 10.4995 19.5 10.4995C19.699 10.4995 19.8899 10.5786 20.0306 10.7193L26.7806 17.4693C26.8504 17.539 26.9057 17.6217 26.9434 17.7127C26.9812 17.8038 27.0006 17.9014 27.0006 17.9999C27.0006 18.0985 26.9812 18.1961 26.9434 18.2871C26.9057 18.3782 26.8504 18.4609 26.7806 18.5306L20.0306 25.2806C19.961 25.3503 19.8783 25.4056 19.7872 25.4433C19.6962 25.4811 19.5986 25.5005 19.5 25.5005C19.4015 25.5005 19.3039 25.4811 19.2128 25.4433C19.1218 25.4056 19.039 25.3503 18.9694 25.2806Z" fill="white"/>
</svg>
