<svg width="36" height="36" viewBox="0 0 36 36" fill="none" xmlns="http://www.w3.org/2000/svg">
<circle cx="18" cy="18" r="18" transform="matrix(4.37114e-08 1 1 -4.37114e-08 0 0)" fill="#5045EF"/>
<path d="M17.0306 25.2806C17.1003 25.2109 17.1557 25.1282 17.1934 25.0371C17.2311 24.9461 17.2506 24.8485 17.2506 24.7499C17.2506 24.6514 17.2311 24.5538 17.1934 24.4627C17.1557 24.3717 17.1003 24.289 17.0306 24.2193L11.5603 18.7499L26.25 18.7499C26.4489 18.7499 26.6397 18.6709 26.7803 18.5303C26.921 18.3896 27 18.1988 27 17.9999C27 17.801 26.921 17.6103 26.7803 17.4696C26.6397 17.3289 26.4489 17.2499 26.25 17.2499L11.5603 17.2499L17.0306 11.7806C17.1713 11.6398 17.2504 11.449 17.2504 11.2499C17.2504 11.0509 17.1713 10.86 17.0306 10.7193C16.8899 10.5786 16.699 10.4995 16.5 10.4995C16.301 10.4995 16.1101 10.5786 15.9694 10.7193L9.21935 17.4693C9.14962 17.539 9.0943 17.6217 9.05656 17.7127C9.01882 17.8038 8.99939 17.9014 8.99939 17.9999C8.99939 18.0985 9.01882 18.1961 9.05656 18.2871C9.0943 18.3782 9.14962 18.4609 9.21935 18.5306L15.9694 25.2806C16.039 25.3503 16.1217 25.4056 16.2128 25.4433C16.3038 25.4811 16.4014 25.5005 16.5 25.5005C16.5985 25.5005 16.6961 25.4811 16.7872 25.4433C16.8782 25.4056 16.961 25.3503 17.0306 25.2806Z" fill="white"/>
</svg>
