<svg width="79" height="79" viewBox="0 0 79 79" fill="none" xmlns="http://www.w3.org/2000/svg">
<rect opacity="0.1" width="79" height="79" rx="15" fill="#68D585"/>
<path d="M29.5875 33.0875C27.2964 35.379 26.0064 38.4849 25.9998 41.7253C25.9932 44.9657 27.2707 48.0767 29.5525 50.3775C32.125 44.4275 36.71 39.4575 42.4325 36.5C37.4932 40.6793 34.1591 46.4445 33 52.81C37.55 54.9625 43.15 54.175 46.9125 50.4125C53.0025 44.3225 54 26 54 26C54 26 35.6775 26.9975 29.5875 33.0875Z" fill="#68D585"/>
<path d="M28.5875 33.0875C26.2964 35.379 25.0064 38.4849 24.9998 41.7253C24.9932 44.9657 26.2707 48.0767 28.5525 50.3775C31.125 44.4275 35.71 39.4575 41.4325 36.5C36.4932 40.6793 33.1591 46.4445 32 52.81C36.55 54.9625 42.15 54.175 45.9125 50.4125C52.0025 44.3225 53 26 53 26C53 26 34.6775 26.9975 28.5875 33.0875Z" fill="#68D585"/>
</svg>
