<svg width="79" height="79" viewBox="0 0 79 79" fill="none" xmlns="http://www.w3.org/2000/svg">
<rect opacity="0.1" width="79" height="79" rx="15" fill="#161C2D"/>
<path d="M40 49.3334C39.1159 49.3334 38.2681 48.9822 37.643 48.3571C37.0178 47.732 36.6667 46.8841 36.6667 46.0001C36.6667 44.1501 38.15 42.6667 40 42.6667C40.884 42.6667 41.7319 43.0179 42.357 43.6431C42.9821 44.2682 43.3333 45.116 43.3333 46.0001C43.3333 46.8841 42.9821 47.732 42.357 48.3571C41.7319 48.9822 40.884 49.3334 40 49.3334ZM50 54.3334V37.6667H30V54.3334H50ZM50 34.3334C50.884 34.3334 51.7319 34.6846 52.357 35.3097C52.9821 35.9348 53.3333 36.7827 53.3333 37.6667V54.3334C53.3333 55.2175 52.9821 56.0653 52.357 56.6904C51.7319 57.3156 50.884 57.6667 50 57.6667H30C29.1159 57.6667 28.2681 57.3156 27.643 56.6904C27.0178 56.0653 26.6667 55.2175 26.6667 54.3334V37.6667C26.6667 35.8167 28.15 34.3334 30 34.3334H31.6667V31.0001C31.6667 28.7899 32.5446 26.6703 34.1074 25.1075C35.6702 23.5447 37.7899 22.6667 40 22.6667C41.0943 22.6667 42.178 22.8823 43.189 23.3011C44.2001 23.7199 45.1187 24.3337 45.8925 25.1075C46.6664 25.8813 47.2802 26.8 47.699 27.8111C48.1178 28.8221 48.3333 29.9057 48.3333 31.0001V34.3334H50ZM40 26.0001C38.6739 26.0001 37.4021 26.5269 36.4645 27.4645C35.5268 28.4022 35 29.674 35 31.0001V34.3334H45V31.0001C45 29.674 44.4732 28.4022 43.5355 27.4645C42.5978 26.5269 41.3261 26.0001 40 26.0001Z" fill="#161C2D"/>
</svg>
