<?xml version="1.0" standalone="no"?>
<!DOCTYPE svg PUBLIC "-//W3C//DTD SVG 20010904//EN"
 "http://www.w3.org/TR/2001/REC-SVG-20010904/DTD/svg10.dtd">
<svg version="1.0" xmlns="http://www.w3.org/2000/svg"
 width="235.000000pt" height="62.000000pt" viewBox="0 0 235.000000 62.000000"
 preserveAspectRatio="xMidYMid meet">

<g transform="translate(0.000000,62.000000) scale(0.100000,-0.100000)"
fill="#000000" stroke="none">
<path d="M0 310 l0 -310 1175 0 1175 0 0 310 0 310 -1175 0 -1175 0 0 -310z
m705 40 c18 -15 19 -42 3 -58 -10 -10 -10 -15 2 -22 9 -6 19 -5 24 0 6 6 18
10 28 10 11 0 18 7 18 20 0 13 -7 20 -20 20 -20 0 -38 25 -27 37 10 9 113 12
127 3 19 -11 4 -40 -20 -40 -29 0 -27 -38 2 -42 13 -2 24 -11 26 -20 3 -16 -8
-18 -112 -17 -98 0 -117 3 -126 17 -9 16 -9 16 -10 0 0 -11 -8 -18 -20 -18
-17 0 -20 7 -22 48 -1 40 -2 42 -5 12 -3 -19 -9 -41 -15 -47 -15 -19 -65 -16
-77 5 -10 16 -10 16 -11 0 0 -11 -8 -18 -20 -18 -19 0 -21 5 -18 58 3 54 4 57
31 60 36 4 55 -12 60 -51 3 -27 4 -25 5 11 2 35 5 42 22 42 11 0 20 -5 20 -11
0 -6 6 -4 14 4 17 17 99 15 121 -3z m313 5 c4 -3 1 -14 -4 -23 -8 -12 -8 -22
0 -34 8 -13 8 -23 0 -36 -15 -23 -134 -31 -134 -8 0 8 6 16 13 19 10 4 10 7 0
18 -19 19 -16 46 7 62 20 14 105 15 118 2z m810 -12 c16 -22 15 -28 -3 -46
-23 -24 4 -40 38 -24 34 15 35 43 1 51 -14 4 -24 12 -21 19 6 19 325 20 354 2
18 -12 23 -12 33 0 15 18 46 20 56 3 4 -6 -4 -19 -19 -30 -15 -11 -27 -29 -27
-42 0 -12 -5 -27 -11 -33 -17 -17 -39 -4 -39 24 0 14 -11 34 -27 47 -36 31
-71 16 -75 -34 -2 -28 -8 -36 -25 -38 -20 -3 -23 1 -23 35 0 33 -4 40 -27 49
-33 11 -73 -3 -73 -26 0 -8 10 -20 23 -25 12 -6 22 -14 22 -20 0 -13 -215 -17
-231 -4 -8 6 -14 6 -18 0 -3 -5 -26 -9 -51 -9 -38 0 -45 3 -45 19 0 14 -7 19
-30 19 -23 0 -30 -5 -30 -19 0 -25 -17 -36 -35 -21 -8 7 -15 7 -19 1 -10 -16
-36 -1 -36 20 0 14 -7 19 -30 19 -22 0 -30 -5 -30 -18 0 -24 -8 -32 -26 -25
-10 4 -14 23 -14 64 0 52 2 59 20 59 13 0 20 -7 20 -20 0 -16 7 -20 30 -20 23
0 30 4 30 20 0 13 7 20 20 20 12 0 20 -7 20 -17 0 -15 1 -15 18 0 26 24 117
23 131 0 9 -16 10 -16 11 -1 0 9 8 19 18 22 32 9 107 -4 120 -21z m-1558 3 c0
-8 -8 -17 -17 -21 -17 -6 -17 -7 0 -16 20 -12 22 -40 5 -57 -18 -18 -128 -16
-128 2 0 8 6 16 13 19 9 3 7 10 -6 25 -15 16 -16 24 -7 41 9 18 20 21 75 21
49 0 65 -3 65 -14z m50 -26 c0 -36 3 -40 24 -40 21 0 25 5 28 38 2 30 7 38 26
40 20 3 22 0 22 -46 0 -63 -13 -74 -82 -70 l-53 3 -3 58 c-3 52 -1 57 18 57
17 0 20 -6 20 -40z m847 0 c0 -30 -4 -40 -16 -41 -13 -1 -13 -2 2 -6 9 -2 17
-9 17 -14 0 -5 17 -9 38 -9 l38 0 -4 40 c-6 57 9 70 80 70 51 0 59 -2 56 -17
-2 -14 -15 -19 -51 -21 -39 -3 -47 -6 -47 -23 0 -16 7 -19 45 -19 51 0 70 -22
40 -44 -16 -12 -16 -14 12 -34 16 -11 42 -24 59 -27 16 -4 48 -13 72 -21 23
-8 56 -14 72 -14 39 0 39 -19 -1 -65 -26 -29 -38 -35 -71 -35 -59 0 -104 26
-154 89 -72 88 -83 95 -183 95 -110 1 -141 18 -141 74 0 51 14 62 81 62 l56 0
0 -40z"/>
</g>
</svg>
