<svg width="20" height="21" viewBox="0 0 20 21" fill="none" xmlns="http://www.w3.org/2000/svg">
<path d="M10 0.457031C15.5228 0.457031 20 4.93418 20 10.457C20 15.9798 15.5228 20.457 10 20.457C4.47715 20.457 0 15.9798 0 10.457C0 4.93418 4.47715 0.457031 10 0.457031ZM10 1.95703C5.30558 1.95703 1.5 5.76261 1.5 10.457C1.5 15.1514 5.30558 18.957 10 18.957C14.6944 18.957 18.5 15.1514 18.5 10.457C18.5 5.76261 14.6944 1.95703 10 1.95703ZM10 5.45703C10.4142 5.45703 10.75 5.79282 10.75 6.20703V9.70703H14.25C14.6642 9.70703 15 10.0428 15 10.457C15 10.8712 14.6642 11.207 14.25 11.207H10.75V14.707C10.75 15.1212 10.4142 15.457 10 15.457C9.5858 15.457 9.25 15.1212 9.25 14.707V11.207H5.75C5.33579 11.207 5 10.8712 5 10.457C5 10.0428 5.33579 9.70703 5.75 9.70703H9.25V6.20703C9.25 5.79282 9.5858 5.45703 10 5.45703Z" fill="white"/>
</svg>
