<svg width="13" height="14" viewBox="0 0 13 14" fill="none" xmlns="http://www.w3.org/2000/svg">
<path d="M6.14258 2C4.95589 2 3.79585 2.35189 2.80916 3.01118C1.82246 3.67047 1.05343 4.60754 0.599304 5.7039C0.145178 6.80026 0.0263578 8.00666 0.257869 9.17054C0.48938 10.3344 1.06083 11.4035 1.89994 12.2426C2.73906 13.0818 3.80815 13.6532 4.97204 13.8847C6.13593 14.1162 7.34233 13.9974 8.43868 13.5433C9.53504 13.0892 10.4721 12.3201 11.1314 11.3334C11.7907 10.3467 12.1426 9.18669 12.1426 8C12.1408 6.40926 11.508 4.88419 10.3832 3.75937C9.25839 2.63454 7.73332 2.00182 6.14258 2ZM6.14258 13C5.15367 13 4.18698 12.7068 3.36473 12.1573C2.54248 11.6079 1.90162 10.827 1.52318 9.91342C1.14475 8.99979 1.04573 7.99445 1.23865 7.02455C1.43158 6.05464 1.90778 5.16373 2.60705 4.46447C3.30631 3.7652 4.19722 3.289 5.16713 3.09607C6.13703 2.90315 7.14237 3.00216 8.056 3.3806C8.96963 3.75904 9.75052 4.3999 10.2999 5.22215C10.8493 6.04439 11.1426 7.01109 11.1426 8C11.1411 9.32563 10.6138 10.5965 9.67647 11.5339C8.73911 12.4712 7.46821 12.9985 6.14258 13ZM8.99633 5.14625C9.04282 5.19269 9.0797 5.24783 9.10486 5.30853C9.13002 5.36923 9.14297 5.43429 9.14297 5.5C9.14297 5.56571 9.13002 5.63077 9.10486 5.69147C9.0797 5.75217 9.04282 5.80731 8.99633 5.85375L6.49633 8.35375C6.44988 8.40021 6.39473 8.43705 6.33403 8.4622C6.27333 8.48734 6.20828 8.50028 6.14258 8.50028C6.07688 8.50028 6.01183 8.48734 5.95113 8.4622C5.89044 8.43705 5.83529 8.40021 5.78883 8.35375C5.74238 8.30729 5.70553 8.25214 5.68038 8.19145C5.65524 8.13075 5.6423 8.0657 5.6423 8C5.6423 7.9343 5.65524 7.86925 5.68038 7.80855C5.70553 7.74786 5.74238 7.6927 5.78883 7.64625L8.28883 5.14625C8.33527 5.09976 8.39041 5.06288 8.45111 5.03772C8.51181 5.01256 8.57687 4.99961 8.64258 4.99961C8.70829 4.99961 8.77335 5.01256 8.83405 5.03772C8.89475 5.06288 8.94989 5.09976 8.99633 5.14625ZM4.14258 0.5C4.14258 0.367392 4.19526 0.240215 4.28903 0.146447C4.3828 0.0526784 4.50997 0 4.64258 0H7.64258C7.77519 0 7.90237 0.0526784 7.99613 0.146447C8.0899 0.240215 8.14258 0.367392 8.14258 0.5C8.14258 0.632608 8.0899 0.759785 7.99613 0.853553C7.90237 0.947322 7.77519 1 7.64258 1H4.64258C4.50997 1 4.3828 0.947322 4.28903 0.853553C4.19526 0.759785 4.14258 0.632608 4.14258 0.5Z" fill="#92929D"/>
</svg>
