<svg width="21" height="21" viewBox="0 0 21 21" fill="none" xmlns="http://www.w3.org/2000/svg">
<path d="M15.4965 9.99542C18.534 9.99542 20.9965 12.4578 20.9965 15.4954C20.9965 18.5329 18.534 20.9954 15.4965 20.9954C12.4589 20.9954 9.99649 18.5329 9.99649 15.4954C9.99649 12.4578 12.4589 9.99542 15.4965 9.99542ZM10.0187 11.9947C9.37159 13.0051 8.99649 14.2064 8.99649 15.4954C8.99649 17.1257 9.59669 18.6158 10.5882 19.7569C9.79269 19.917 8.92779 19.9964 7.99649 19.9964C4.57549 19.9964 2.05252 18.9243 0.51036 16.7599C0.1784 16.294 0 15.7362 0 15.1641V14.2442C0 13.0021 1.00685 11.9953 2.24887 11.9953L10.0187 11.9947ZM12.85 15.1418C12.6548 14.9465 12.3382 14.9465 12.1429 15.1418C11.9476 15.3371 11.9476 15.6537 12.1429 15.8489L14.1429 17.8489C14.3382 18.0442 14.6548 18.0442 14.85 17.8489L18.85 13.8489C19.0453 13.6537 19.0453 13.3371 18.85 13.1418C18.6548 12.9465 18.3382 12.9465 18.1429 13.1418L14.4965 16.7882L12.85 15.1418ZM7.99649 0C10.7579 0 12.9965 2.23858 12.9965 5C12.9965 7.76143 10.7579 10 7.99649 10C5.23503 10 2.99645 7.76143 2.99645 5C2.99645 2.23858 5.23503 0 7.99649 0Z" fill="#58985B"/>
</svg>
