<svg width="18" height="18" viewBox="0 0 18 18" fill="none" xmlns="http://www.w3.org/2000/svg">
<path d="M6.7 11.515V11.5151C6.6999 11.7058 6.75172 11.8929 6.8499 12.0563C6.94808 12.2197 7.0889 12.3534 7.25727 12.4428C7.42564 12.5323 7.61519 12.5743 7.80558 12.5642C7.99594 12.5541 8.17995 12.4924 8.33789 12.3856L6.7 11.515ZM6.7 11.515V6.485V6.4849C6.6999 6.29424 6.75172 6.10714 6.8499 5.9437C6.94808 5.78025 7.0889 5.64663 7.25727 5.55716C7.42564 5.46768 7.61519 5.42574 7.80558 5.43584C7.99598 5.44593 8.18004 5.50768 8.338 5.61445L12.0554 8.1306C12.0554 8.13061 12.0554 8.13062 12.0554 8.13063C12.1974 8.22683 12.3137 8.35637 12.3941 8.50791C12.4745 8.65948 12.5166 8.82843 12.5166 9C12.5166 9.17157 12.4745 9.34052 12.3941 9.49209C12.3137 9.64363 12.1974 9.77317 12.0554 9.86937C12.0554 9.86938 12.0554 9.86939 12.0554 9.8694L8.338 12.3856L6.7 11.515ZM15.25 1.925H2.75C2.5312 1.925 2.32135 2.01192 2.16664 2.16664C2.01192 2.32135 1.925 2.5312 1.925 2.75V15.25C1.925 15.4688 2.01192 15.6786 2.16664 15.8334C2.32135 15.9881 2.5312 16.075 2.75 16.075H15.25C15.4688 16.075 15.6786 15.9881 15.8334 15.8334C15.9881 15.6786 16.075 15.4688 16.075 15.25V2.75C16.075 2.5312 15.9881 2.32135 15.8334 2.16664C15.6786 2.01192 15.4688 1.925 15.25 1.925ZM0.45 2.75C0.45 2.14 0.692321 1.55499 1.12365 1.12365C1.55499 0.692321 2.14 0.45 2.75 0.45H15.25C15.86 0.45 16.445 0.692321 16.8763 1.12365C17.3077 1.55499 17.55 2.14 17.55 2.75V15.25C17.55 15.86 17.3077 16.445 16.8763 16.8763C16.445 17.3077 15.86 17.55 15.25 17.55H2.75C2.14 17.55 1.55499 17.3077 1.12365 16.8763C0.692321 16.445 0.45 15.86 0.45 15.25V2.75Z" fill="#4C4C4C" stroke="white" stroke-width="0.4"/>
</svg>
