<svg width="16" height="16" viewBox="0 0 16 16" fill="none" xmlns="http://www.w3.org/2000/svg">
<path d="M8.33333 2.99984C8.33333 3.3665 8.20289 3.6805 7.942 3.94184C7.68111 4.20317 7.36711 4.33362 7 4.33317C6.85556 4.33317 6.72222 4.31362 6.6 4.2745C6.47778 4.23539 6.35556 4.17162 6.23333 4.08317C5.96667 4.17206 5.75289 4.33317 5.592 4.5665C5.43111 4.79984 5.35044 5.05539 5.35 5.33317H14L13.3333 9.99984H10.0667V8.6665H12.1833C12.2389 8.33317 12.2862 7.99984 12.3253 7.6665C12.3644 7.33317 12.4116 6.99984 12.4667 6.6665H3.53333C3.58889 6.99984 3.63622 7.33317 3.67533 7.6665C3.71444 7.99984 3.76156 8.33317 3.81667 8.6665H5.93333V9.99984H2.66667L2 5.33317H4C4 4.78873 4.15 4.29428 4.45 3.84984C4.75 3.40539 5.15556 3.07762 5.66667 2.8665C5.7 2.52206 5.84444 2.23606 6.1 2.0085C6.35556 1.78095 6.65556 1.66695 7 1.6665C7.36667 1.6665 7.68067 1.79717 7.942 2.0585C8.20333 2.31984 8.33378 2.63362 8.33333 2.99984ZM6.51667 12.6665H9.48333L9.86667 8.6665H6.13333L6.51667 12.6665ZM5.33333 13.9998L4.83333 8.79984C4.78889 8.41095 4.9 8.06939 5.16667 7.77517C5.43333 7.48095 5.76111 7.33362 6.15 7.33317H9.85C10.2389 7.33317 10.5667 7.4805 10.8333 7.77517C11.1 8.06984 11.2111 8.41139 11.1667 8.79984L10.6667 13.9998H5.33333Z" fill="#8590A3"/>
</svg>
