<svg width="24" height="25" viewBox="0 0 24 25" fill="none" xmlns="http://www.w3.org/2000/svg">
<path d="M3 2.75C3 2.55109 3.07902 2.36032 3.21967 2.21967C3.36032 2.07902 3.55109 2 3.75 2H20.25C20.4489 2 20.6397 2.07902 20.7803 2.21967C20.921 2.36032 21 2.55109 21 2.75C21 2.94891 20.921 3.13968 20.7803 3.28033C20.6397 3.42098 20.4489 3.5 20.25 3.5H18.75V5C18.7503 6.27355 18.3903 7.5212 17.7116 8.59883C17.0329 9.67647 16.0632 10.5401 14.9145 11.09C14.4795 11.2985 14.25 11.6555 14.25 11.975V13.025C14.25 13.3445 14.481 13.7015 14.9145 13.91C16.0632 14.4599 17.0329 15.3235 17.7116 16.4012C18.3903 17.4788 18.7503 18.7265 18.75 20V21.5H20.25C20.4489 21.5 20.6397 21.579 20.7803 21.7197C20.921 21.8603 21 22.0511 21 22.25C21 22.4489 20.921 22.6397 20.7803 22.7803C20.6397 22.921 20.4489 23 20.25 23H3.75C3.55109 23 3.36032 22.921 3.21967 22.7803C3.07902 22.6397 3 22.4489 3 22.25C3 22.0511 3.07902 21.8603 3.21967 21.7197C3.36032 21.579 3.55109 21.5 3.75 21.5H5.25V20C5.24969 18.7265 5.60968 17.4788 6.28837 16.4012C6.96707 15.3235 7.93679 14.4599 9.0855 13.91C9.5205 13.7015 9.75 13.3445 9.75 13.025V11.975C9.75 11.6555 9.519 11.2985 9.0855 11.09C7.93679 10.5401 6.96707 9.67647 6.28837 8.59883C5.60968 7.5212 5.24969 6.27355 5.25 5V3.5H3.75C3.55109 3.5 3.36032 3.42098 3.21967 3.28033C3.07902 3.13968 3 2.94891 3 2.75ZM6.75 3.5V5C6.74973 5.99063 7.02974 6.96112 7.55768 7.79935C8.08562 8.63758 8.83994 9.30933 9.7335 9.737C10.533 10.121 11.25 10.9235 11.25 11.9735V13.0265C11.25 14.0765 10.533 14.879 9.7335 15.263C8.83994 15.6907 8.08562 16.3624 7.55768 17.2007C7.02974 18.0389 6.74973 19.0094 6.75 20V21.5H17.25V20C17.2503 19.0094 16.9703 18.0389 16.4423 17.2007C15.9144 16.3624 15.1601 15.6907 14.2665 15.263C13.467 14.879 12.75 14.078 12.75 13.0265V11.9735C12.75 10.9235 13.467 10.121 14.2665 9.737C15.1601 9.30933 15.9144 8.63758 16.4423 7.79935C16.9703 6.96112 17.2503 5.99063 17.25 5V3.5H6.75Z" fill="white"/>
</svg>
