<svg width="24" height="25" viewBox="0 0 24 25" fill="none" xmlns="http://www.w3.org/2000/svg">
<g clip-path="url(#clip0_5769_23142)">
<path d="M2.72122 19.8752L2.72123 19.8752C4.99989 22.7199 8.39191 24.35 12.0102 24.35C15.6283 24.35 19.0093 22.72 21.2881 19.8752L21.4052 19.969L21.2881 19.8752C24.0204 16.4648 24.6205 11.654 22.8124 7.6207C22.6192 7.19247 22.1156 7.00014 21.6889 7.19273L21.6884 7.19293C21.2611 7.38405 21.0689 7.88721 21.261 8.31563L21.1242 8.377L21.261 8.31564C22.8107 11.7721 22.302 15.8922 19.9622 18.8128L19.9622 18.8128C18.0079 21.2511 15.0979 22.65 11.9992 22.65C8.90017 22.65 6.00229 21.251 4.04811 18.8128L4.04807 18.8128C1.11819 15.154 1.11819 9.84605 4.04807 6.18724L4.04809 6.18722C7.43643 1.95763 13.5231 1.10118 17.9025 4.23907C18.1061 4.38489 18.1616 4.59241 18.1727 4.73095C18.1727 4.731 18.1727 4.73105 18.1727 4.7311L18.0232 4.743C18.0382 4.929 17.9712 5.111 17.8392 5.243L2.72122 19.8752ZM2.72122 19.8752C-0.701862 15.603 -0.701863 9.39699 2.72121 5.1248C6.67679 0.188476 13.7811 -0.806222 18.8937 2.85988C19.4553 3.26277 19.8101 3.8943 19.8666 4.59506L19.8667 4.5952M2.72122 19.8752L19.8667 4.5952M19.7648 11.3489C19.6956 10.8823 19.2581 10.5577 18.802 10.6311L18.7999 10.6314C18.336 10.6994 18.0147 11.132 18.0835 11.596L18.0836 11.5961C18.3705 13.543 17.7378 15.4584 16.3482 16.8481C15.5662 17.6301 14.6241 18.1571 13.6266 18.4287L13.5293 18.4552L13.468 18.3752C13.1302 17.9336 12.5984 17.649 11.9992 17.649C11.3998 17.649 10.8671 17.9337 10.5293 18.3752L10.468 18.4552L10.3707 18.4287C9.37321 18.1571 8.43205 17.63 7.65009 16.8481C5.91341 15.1114 5.43517 12.5868 6.21295 10.4164L6.24222 10.3347L6.32763 10.3194C7.19256 10.164 7.84916 9.40798 7.84916 8.499C7.84916 8.36261 7.8335 8.23024 7.80553 8.10065L7.78736 8.01646L7.85091 7.95833C10.0058 5.98697 13.2353 5.82932 15.5622 7.48581L15.7066 7.58866L15.5812 7.71407L14.1362 9.15907L14.0541 9.24118L13.9541 9.18227C13.2713 8.7803 12.4714 8.59805 11.6638 8.66347C10.5276 8.76367 9.49476 9.36209 8.83099 10.3081L19.7648 11.3489ZM19.7648 11.3489C20.1258 13.796 19.2975 16.3015 17.5501 18.05L19.7648 11.3489ZM19.8667 4.5952C19.9261 5.32331 19.664 6.03707 19.1471 6.55394L14.7211 10.9799C14.5612 11.1398 14.3454 11.229 14.1202 11.229C13.8947 11.229 13.6781 11.1396 13.5195 10.9802L13.5194 10.9801M19.8667 4.5952L13.5194 10.9801M13.5194 10.9801C13.0686 10.5282 12.4448 10.3049 11.8115 10.3585L11.8112 10.3586M13.5194 10.9801L11.8112 10.3586M11.8112 10.3586C11.1669 10.4145 10.6012 10.7445 10.2223 11.2849L10.2223 11.285M11.8112 10.3586L10.2223 11.285M10.2223 11.285C9.72811 11.9906 9.72811 13.0094 10.2223 13.715L10.2223 13.7151L10.2223 11.285ZM13.5194 14.0199L13.5192 14.0201C13.069 14.4703 12.4495 14.6973 11.8113 14.6414C11.8112 14.6414 11.8111 14.6414 11.8111 14.6414L11.8242 14.492L13.5194 14.0199ZM13.5194 14.0199C13.8507 13.6878 14.3886 13.6876 14.7211 14.0201C15.0535 14.3525 15.0535 14.8895 14.7211 15.2219L14.721 15.222C13.9156 16.0284 12.8003 16.4327 11.6642 16.3356M13.5194 14.0199L11.6642 16.3356M11.6642 16.3356C10.5279 16.2355 9.49484 15.637 8.83099 14.6909L11.6642 16.3356ZM8.83095 14.6909C7.92723 13.4016 7.92723 11.5975 8.83095 10.3082V14.6909Z" fill="white" stroke="#389AE1" stroke-width="0.3"/>
</g>
<defs>
<clipPath id="clip0_5769_23142">
<rect width="24" height="24" fill="white" transform="translate(0 0.5)"/>
</clipPath>
</defs>
</svg>
