<svg width="24" height="25" viewBox="0 0 24 25" fill="none" xmlns="http://www.w3.org/2000/svg">
<path d="M12 22.5C17.523 22.5 22 18.023 22 12.5C22 6.977 17.523 2.5 12 2.5C6.477 2.5 2 6.977 2 12.5C2 18.023 6.477 22.5 12 22.5Z" stroke="#0026B1" stroke-width="1.5" stroke-linecap="round" stroke-linejoin="round"/>
<path d="M2.5 13L8 15L7 18.5L8 21.5M17 21L16.5 18.5L14 17.5V14L17 13L21.5 13.5M19 6L18.5 7.5L15 8V11L17.5 10H19.5L21.5 11M2.5 11L5 9L7.5 8.5L9.5 5.5L8.5 3.5" stroke="#0026B1" stroke-width="1.5" stroke-linecap="round" stroke-linejoin="round"/>
</svg>
