<svg width="22" height="21" viewBox="0 0 22 21" fill="none" xmlns="http://www.w3.org/2000/svg">
<path d="M17.8128 3.50476C17.9028 4.78576 18.5178 5.99851 19.5243 6.86476C20.2565 7.49366 20.8452 8.27239 21.2505 9.14835C21.6559 10.0243 21.8685 10.9771 21.874 11.9423C21.8863 12.8331 21.72 13.7174 21.3848 14.5428C21.0496 15.3683 20.5524 16.1182 19.9225 16.7483C19.2906 17.3989 18.5342 17.9156 17.6983 18.2676C16.8624 18.6197 15.9642 18.7998 15.0573 18.7973H13.9473C14.1792 18.8667 14.3825 19.009 14.5271 19.2032C14.6717 19.3973 14.7498 19.6329 14.7498 19.875C14.7423 20.4998 14.2413 21 13.6225 21H8.37703C8.22913 21.0002 8.08264 20.9713 7.94593 20.9148C7.80923 20.8584 7.68498 20.7756 7.5803 20.6711C7.47561 20.5666 7.39254 20.4425 7.33583 20.3059C7.27912 20.1693 7.24988 20.0229 7.24978 19.875C7.24978 19.3688 7.58578 18.9375 8.05228 18.7973H7.31728C5.47753 18.7973 3.75103 18.0668 2.45203 16.7483C1.17628 15.453 0.478027 13.7423 0.500527 11.9423C0.510788 10.9771 0.726287 10.0253 1.13271 9.14983C1.53913 8.27439 2.12717 7.49546 2.85778 6.86476C3.35152 6.44555 3.75755 5.93291 4.05255 5.35629C4.34755 4.77968 4.52571 4.15045 4.57678 3.50476H3.06778C2.99233 3.5048 2.91875 3.48133 2.85726 3.43761C2.79577 3.3939 2.74943 3.3321 2.72468 3.26083C2.69993 3.18956 2.69801 3.11235 2.71917 3.03993C2.74034 2.96751 2.78354 2.90349 2.84278 2.85676L6.19828 0.198014C6.26035 0.150359 6.33451 0.120996 6.41238 0.113236C6.49026 0.105476 6.56875 0.119627 6.63901 0.154094C6.70927 0.188562 6.7685 0.241974 6.81003 0.308307C6.85155 0.37464 6.87372 0.451256 6.87403 0.529514L6.86653 3.50476C6.86653 5.57626 5.95828 7.23376 4.36678 8.61976C3.88348 9.03574 3.49428 9.54984 3.22505 10.1279C2.95582 10.7059 2.81272 11.3346 2.80528 11.9723C2.79028 13.155 3.24778 14.2778 4.09678 15.1365C4.517 15.5693 5.02002 15.913 5.57588 16.1473C6.13175 16.3815 6.72907 16.5015 7.33228 16.5C8.05619 16.4986 8.74991 16.2098 9.26088 15.697C9.77185 15.1842 10.0582 14.4894 10.057 13.7655V3.50551H9.05953C8.97589 3.50479 8.89411 3.48077 8.82336 3.43615C8.75262 3.39153 8.69571 3.32808 8.65902 3.25291C8.62233 3.17775 8.60732 3.09384 8.61567 3.01062C8.62402 2.9274 8.65539 2.84815 8.70628 2.78176L10.6803 0.220514C10.732 0.15187 10.799 0.0961775 10.8759 0.0578259C10.9528 0.0194743 11.0376 -0.000488281 11.1235 -0.000488281C11.2095 -0.000488281 11.2943 0.0194743 11.3712 0.0578259C11.4481 0.0961775 11.5151 0.15187 11.5668 0.220514L13.5408 2.78176C13.5914 2.8481 13.6226 2.92721 13.6309 3.01025C13.6391 3.09329 13.6241 3.17699 13.5876 3.252C13.551 3.32701 13.4943 3.39038 13.4238 3.43501C13.3533 3.47965 13.2717 3.5038 13.1883 3.50476H12.3475V13.7498C12.3468 14.1083 12.4168 14.4634 12.5533 14.7949C12.6899 15.1264 12.8904 15.4277 13.1434 15.6817C13.3964 15.9357 13.697 16.1374 14.0279 16.2752C14.3589 16.413 14.7138 16.4843 15.0723 16.485C15.6754 16.4858 16.2725 16.3655 16.8282 16.1312C17.384 15.897 17.8871 15.5537 18.3078 15.1215C18.7241 14.7074 19.0529 14.2138 19.2748 13.6701C19.4967 13.1264 19.607 12.5437 19.5993 11.9565C19.591 11.3191 19.4475 10.6908 19.1784 10.113C18.9092 9.5352 18.5204 9.02113 18.0378 8.60476C16.4313 7.22626 15.523 5.57626 15.523 3.49726L15.5155 0.529514C15.5155 0.183014 15.913 -0.013486 16.1905 0.205514L19.5468 2.85676C19.8093 3.07576 19.6593 3.50476 19.3218 3.50476H17.8128Z" fill="white"/>
</svg>
