<svg width="24" height="25" viewBox="0 0 24 25" fill="none" xmlns="http://www.w3.org/2000/svg">
<g clip-path="url(#clip0_338_7802)">
<path d="M5.27831 23.7454C5.76164 24.2287 6.15364 24.6207 6.88964 23.8854C7.62498 23.15 6.44631 21.9714 7.18231 21.2354L7.55031 20.8674C8.28631 20.1314 9.46498 21.31 10.1996 20.5754C10.9356 19.8394 10.5436 19.4474 10.0596 18.964L8.27498 17.18C7.79164 16.6967 7.06964 16.634 6.66364 17.0407L3.35431 20.35C2.94764 20.756 3.01031 21.478 3.49364 21.9614L5.27831 23.7454Z" fill="white"/>
<path d="M0.687257 23.0147C0.811075 23.1386 0.958085 23.2368 1.11989 23.3039C1.28169 23.3709 1.45512 23.4054 1.63026 23.4054C1.8054 23.4054 1.97882 23.3709 2.14063 23.3039C2.30243 23.2368 2.44944 23.1386 2.57326 23.0147L15.2866 10.3021C15.2193 8.48405 18.5866 7.00205 17.6439 6.05938C17.1233 5.53872 14.8153 9.83072 12.9966 8.82072L0.687257 21.1294C0.437295 21.3794 0.296875 21.7185 0.296875 22.0721C0.296875 22.4256 0.437295 22.7647 0.687257 23.0147Z" fill="white"/>
<path d="M11.2812 2.99533C10.5935 3.68295 10.2071 4.61559 10.207 5.58809C10.207 6.56059 10.5932 7.49329 11.2809 8.181C11.9685 8.8687 12.9011 9.25509 13.8736 9.25515C14.8461 9.25521 15.7788 8.86895 16.4665 8.18133C17.1542 7.49371 17.5406 6.56107 17.5407 5.58856C17.5407 4.61606 17.1545 3.68337 16.4669 2.99566C15.7792 2.30796 14.8466 1.92157 13.8741 1.92151C12.9016 1.92145 11.9689 2.30771 11.2812 2.99533ZM15.5232 7.238C15.0856 7.6756 14.4921 7.92145 13.8732 7.92145C13.2543 7.92145 12.6608 7.6756 12.2232 7.238C11.7856 6.80039 11.5397 6.20687 11.5397 5.588C11.5397 5.28156 11.6001 4.97813 11.7174 4.69502C11.8346 4.41191 12.0065 4.15468 12.2232 3.938C12.6608 3.50039 13.2543 3.25454 13.8732 3.25454C14.4921 3.25454 15.0856 3.50039 15.5232 3.938C15.9608 4.3756 16.2066 4.96913 16.2066 5.588C16.2066 6.20687 15.9608 6.80039 15.5232 7.238Z" fill="white"/>
<path d="M17.4093 1.58136C17.0614 1.92014 16.7843 2.32464 16.594 2.77139C16.4037 3.21813 16.3041 3.69822 16.3009 4.18379C16.2976 4.66936 16.3909 5.15073 16.5752 5.59996C16.7595 6.0492 17.0312 6.45735 17.3746 6.80073C17.7179 7.14411 18.126 7.41587 18.5752 7.60024C19.0244 7.78461 19.5058 7.87793 19.9914 7.87476C20.4769 7.87159 20.957 7.77201 21.4038 7.5818C21.8506 7.39158 22.2551 7.11452 22.5939 6.76669C23.2667 6.0761 23.6403 5.14834 23.634 4.18426C23.6278 3.22019 23.242 2.29738 22.5603 1.61561C21.8787 0.93385 20.9559 0.547996 19.9918 0.541585C19.0278 0.535174 18.0999 0.908723 17.4093 1.58136ZM21.6519 5.82403C21.4352 6.04066 21.1778 6.21248 20.8947 6.32968C20.6115 6.44687 20.308 6.50714 20.0016 6.50705C19.6951 6.50696 19.3916 6.4465 19.1085 6.32914C18.8254 6.21177 18.5682 6.0398 18.3516 5.82303C18.135 5.60626 17.9631 5.34894 17.8459 5.06577C17.7288 4.7826 17.6685 4.47912 17.6686 4.17265C17.6687 3.86619 17.7291 3.56274 17.8465 3.27964C17.9639 2.99654 18.1358 2.73933 18.3526 2.52269C18.7904 2.08517 19.384 1.83948 20.003 1.83967C20.6219 1.83986 21.2154 2.08591 21.6529 2.52369C22.0905 2.96148 22.3361 3.55514 22.336 4.17407C22.3358 4.793 22.0897 5.38651 21.6519 5.82403Z" fill="white"/>
<path d="M15.9921 7.70932C15.6516 8.04979 15.3815 8.454 15.1972 8.89887C15.0129 9.34374 14.918 9.82055 14.918 10.3021C14.9179 10.7836 15.0128 11.2604 15.197 11.7053C15.3812 12.1502 15.6513 12.5545 15.9918 12.895C16.3323 13.2355 16.7365 13.5056 17.1813 13.6899C17.6262 13.8742 18.103 13.9691 18.5846 13.9691C19.0661 13.9692 19.5429 13.8744 19.9878 13.6901C20.4327 13.5059 20.8369 13.2358 21.1775 12.8953C21.8652 12.2077 22.2515 11.2751 22.2516 10.3026C22.2517 9.33005 21.8654 8.39736 21.1778 7.70965C20.4902 7.02194 19.5575 6.63556 18.585 6.6355C17.6125 6.63544 16.6798 7.0217 15.9921 7.70932ZM20.2355 11.952C19.7978 12.3896 19.2043 12.6354 18.5855 12.6354C17.9666 12.6354 17.3731 12.3896 16.9355 11.952C16.4978 11.5144 16.252 10.9209 16.252 10.302C16.252 9.68311 16.4978 9.08959 16.9355 8.65198C17.3731 8.21438 17.9666 7.96853 18.5855 7.96853C19.2043 7.96853 19.7978 8.21438 20.2355 8.65198C20.6731 9.08959 20.9189 9.68311 20.9189 10.302C20.9189 10.9209 20.6731 11.5144 20.2355 11.952Z" fill="white"/>
<path d="M12.928 12.6587C13.1781 12.9088 13.3186 13.248 13.3186 13.6017C13.3186 13.9554 13.1781 14.2946 12.928 14.5447C12.6779 14.7948 12.3387 14.9353 11.985 14.9353C11.6313 14.9353 11.2921 14.7948 11.042 14.5447L9.15599 12.6587C8.90598 12.4086 8.76556 12.0695 8.76563 11.7158C8.76569 11.3622 8.90623 11.0231 9.15633 10.7731C9.40642 10.523 9.7456 10.3826 10.0992 10.3827C10.4529 10.3828 10.792 10.5233 11.042 10.7734L12.928 12.6587Z" fill="white"/>
<path d="M17.3346 7.16671C17.7028 7.16671 18.0013 6.86823 18.0013 6.50004C18.0013 6.13185 17.7028 5.83337 17.3346 5.83337C16.9664 5.83337 16.668 6.13185 16.668 6.50004C16.668 6.86823 16.9664 7.16671 17.3346 7.16671Z" fill="white"/>
</g>
<defs>
<clipPath id="clip0_338_7802">
<rect width="24" height="24" fill="white" transform="translate(0 0.5)"/>
</clipPath>
</defs>
</svg>
