<svg width="35" height="35" viewBox="0 0 35 35" fill="none" xmlns="http://www.w3.org/2000/svg">
<mask id="mask0_418_129" style="mask-type:alpha" maskUnits="userSpaceOnUse" x="0" y="0" width="35" height="35">
<rect width="35" height="35" fill="#D9D9D9"/>
</mask>
<g mask="url(#mask0_418_129)">
<path d="M23.3333 12.25L10.3542 25.2291C10.0868 25.4965 9.74653 25.6302 9.33334 25.6302C8.92014 25.6302 8.57986 25.4965 8.3125 25.2291C8.04514 24.9618 7.91146 24.6215 7.91146 24.2083C7.91146 23.7951 8.04514 23.4548 8.3125 23.1875L21.2917 10.2083H10.2083C9.79514 10.2083 9.44879 10.0685 9.16927 9.78902C8.88976 9.50951 8.75 9.16315 8.75 8.74996C8.75 8.33676 8.88976 7.99041 9.16927 7.7109C9.44879 7.43138 9.79514 7.29163 10.2083 7.29163H24.7917C25.2049 7.29163 25.5512 7.43138 25.8307 7.7109C26.1102 7.99041 26.25 8.33676 26.25 8.74996V23.3333C26.25 23.7465 26.1102 24.0928 25.8307 24.3724C25.5512 24.6519 25.2049 24.7916 24.7917 24.7916C24.3785 24.7916 24.0321 24.6519 23.7526 24.3724C23.4731 24.0928 23.3333 23.7465 23.3333 23.3333V12.25Z" fill="#101534"/>
</g>
</svg>
