<svg width="17" height="16" viewBox="0 0 17 16" fill="none" xmlns="http://www.w3.org/2000/svg">
<g clip-path="url(#clip0_1578_4092)">
<path d="M16.2669 11.3333L12.9336 14.6666L10.6003 12.3333L11.6003 11.3333L12.9336 12.6666L15.2669 10.3333L16.2669 11.3333ZM9.33359 13.2666C9.06693 13.3333 8.86693 13.3333 8.60026 13.3333C5.66693 13.3333 3.26693 10.9333 3.26693 7.99998C3.26693 5.06665 5.66693 2.66665 8.60026 2.66665C11.5336 2.66665 13.9336 5.06665 13.9336 7.99998C13.9336 8.26665 13.9336 8.46665 13.8669 8.73331C14.3336 8.79998 14.7336 8.93331 15.1336 9.13331C15.2003 8.73331 15.2669 8.39998 15.2669 7.99998C15.2669 4.33331 12.2669 1.33331 8.60026 1.33331C4.93359 1.33331 1.93359 4.33331 1.93359 7.99998C1.93359 11.6666 4.93359 14.6666 8.60026 14.6666C9.00026 14.6666 9.40026 14.6 9.73359 14.5333C9.53359 14.2 9.40026 13.7333 9.33359 13.2666ZM11.0003 9.39998L8.93359 8.19998V4.66665H7.93359V8.66665L10.2669 10.0666C10.4669 9.79998 10.7336 9.59998 11.0003 9.39998Z" fill="#8590A3"/>
</g>
<defs>
<clipPath id="clip0_1578_4092">
<rect width="16" height="16" fill="white" transform="translate(0.601562)"/>
</clipPath>
</defs>
</svg>
