<svg width="24" height="25" viewBox="0 0 24 25" fill="none" xmlns="http://www.w3.org/2000/svg">
<path d="M18.8128 5.50476C18.9028 6.78576 19.5178 7.99851 20.5243 8.86476C21.2565 9.49366 21.8452 10.2724 22.2505 11.1483C22.6559 12.0243 22.8685 12.9771 22.874 13.9423C22.8863 14.8331 22.72 15.7174 22.3848 16.5428C22.0496 17.3683 21.5524 18.1182 20.9225 18.7483C20.2906 19.3989 19.5342 19.9156 18.6983 20.2676C17.8624 20.6197 16.9642 20.7998 16.0573 20.7973H14.9473C15.1792 20.8667 15.3825 21.009 15.5271 21.2032C15.6717 21.3973 15.7498 21.6329 15.7498 21.875C15.7423 22.4998 15.2413 23 14.6225 23H9.37703C9.22913 23.0002 9.08264 22.9713 8.94593 22.9148C8.80923 22.8584 8.68498 22.7756 8.5803 22.6711C8.47561 22.5666 8.39254 22.4425 8.33583 22.3059C8.27912 22.1693 8.24988 22.0229 8.24978 21.875C8.24978 21.3688 8.58578 20.9375 9.05228 20.7973H8.31728C6.47753 20.7973 4.75103 20.0668 3.45203 18.7483C2.17628 17.453 1.47803 15.7423 1.50053 13.9423C1.51079 12.9771 1.72629 12.0253 2.13271 11.1498C2.53913 10.2744 3.12717 9.49546 3.85778 8.86476C4.35152 8.44555 4.75755 7.93291 5.05255 7.35629C5.34755 6.77968 5.52571 6.15045 5.57678 5.50476H4.06778C3.99233 5.5048 3.91875 5.48133 3.85726 5.43761C3.79577 5.3939 3.74943 5.3321 3.72468 5.26083C3.69993 5.18956 3.69801 5.11235 3.71917 5.03993C3.74034 4.96751 3.78354 4.90349 3.84278 4.85676L7.19828 2.19801C7.26035 2.15036 7.33451 2.121 7.41238 2.11324C7.49026 2.10548 7.56875 2.11963 7.63901 2.15409C7.70927 2.18856 7.7685 2.24197 7.81003 2.30831C7.85155 2.37464 7.87372 2.45126 7.87403 2.52951L7.86653 5.50476C7.86653 7.57626 6.95828 9.23376 5.36678 10.6198C4.88348 11.0357 4.49428 11.5498 4.22505 12.1279C3.95582 12.7059 3.81272 13.3346 3.80528 13.9723C3.79028 15.155 4.24778 16.2778 5.09678 17.1365C5.517 17.5693 6.02002 17.913 6.57588 18.1473C7.13175 18.3815 7.72907 18.5015 8.33228 18.5C9.05619 18.4986 9.74991 18.2098 10.2609 17.697C10.7718 17.1842 11.0582 16.4894 11.057 15.7655V5.50551H10.0595C9.97589 5.50479 9.89411 5.48077 9.82336 5.43615C9.75262 5.39153 9.69571 5.32808 9.65902 5.25291C9.62233 5.17775 9.60732 5.09384 9.61567 5.01062C9.62402 4.9274 9.65539 4.84815 9.70628 4.78176L11.6803 2.22051C11.732 2.15187 11.799 2.09618 11.8759 2.05783C11.9528 2.01947 12.0376 1.99951 12.1235 1.99951C12.2095 1.99951 12.2943 2.01947 12.3712 2.05783C12.4481 2.09618 12.5151 2.15187 12.5668 2.22051L14.5408 4.78176C14.5914 4.8481 14.6226 4.92721 14.6309 5.01025C14.6391 5.09329 14.6241 5.17699 14.5876 5.252C14.551 5.32701 14.4943 5.39038 14.4238 5.43501C14.3533 5.47965 14.2717 5.5038 14.1883 5.50476H13.3475V15.7498C13.3468 16.1083 13.4168 16.4634 13.5533 16.7949C13.6899 17.1264 13.8904 17.4277 14.1434 17.6817C14.3964 17.9357 14.697 18.1374 15.0279 18.2752C15.3589 18.413 15.7138 18.4843 16.0723 18.485C16.6754 18.4858 17.2725 18.3655 17.8282 18.1312C18.384 17.897 18.8871 17.5537 19.3078 17.1215C19.7241 16.7074 20.0529 16.2138 20.2748 15.6701C20.4967 15.1264 20.607 14.5437 20.5993 13.9565C20.591 13.3191 20.4475 12.6908 20.1784 12.113C19.9092 11.5352 19.5204 11.0211 19.0378 10.6048C17.4313 9.22626 16.523 7.57626 16.523 5.49726L16.5155 2.52951C16.5155 2.18301 16.913 1.98651 17.1905 2.20551L20.5468 4.85676C20.8093 5.07576 20.6593 5.50476 20.3218 5.50476H18.8128Z" fill="white"/>
</svg>
