<svg width="24" height="24" viewBox="0 0 24 24" fill="none" xmlns="http://www.w3.org/2000/svg">
<g clip-path="url(#clip0_909_8677)">
<path d="M10.2322 10.2307C11.1394 9.32362 12.3604 8.79992 13.6429 8.7679C14.9253 8.73589 16.171 9.19801 17.1222 10.0587L17.3032 10.2307L20.1312 13.0597C21.0523 13.9824 21.5765 15.2283 21.5922 16.5319C21.6079 17.8355 21.1138 19.0937 20.2153 20.0382C19.3167 20.9828 18.0848 21.5391 16.782 21.5885C15.4793 21.6379 14.2087 21.1765 13.2412 20.3027L13.0612 20.1307L10.9392 18.0087C10.7599 17.8287 10.6558 17.5873 10.648 17.3333C10.6402 17.0794 10.7294 16.832 10.8975 16.6414C11.0655 16.4508 11.2998 16.3314 11.5527 16.3073C11.8056 16.2832 12.0582 16.3563 12.2592 16.5117L12.3532 16.5947L14.4752 18.7167C15.0253 19.27 15.7693 19.5872 16.5494 19.6011C17.3294 19.6149 18.0842 19.3244 18.6536 18.791C19.223 18.2576 19.5622 17.5234 19.5993 16.7441C19.6364 15.9648 19.3684 15.2017 18.8522 14.6167L18.7172 14.4737L15.8892 11.6457C15.6106 11.3671 15.2799 11.146 14.9159 10.9952C14.5519 10.8444 14.1617 10.7668 13.7677 10.7668C13.3737 10.7668 12.9836 10.8444 12.6196 10.9952C12.2556 11.146 11.9248 11.3671 11.6462 11.6457C11.4586 11.8332 11.2041 11.9385 10.9389 11.9384C10.6736 11.9383 10.4192 11.8328 10.2317 11.6452C10.0442 11.4575 9.93893 11.2031 9.93903 10.9378C9.93912 10.6726 10.0446 10.4182 10.2322 10.2307ZM3.86823 3.86669C4.77536 2.95962 5.99643 2.43592 7.27886 2.4039C8.56129 2.37189 9.80697 2.83401 10.7582 3.69469L10.9392 3.86669L13.0602 5.98969C13.2396 6.16965 13.3437 6.41112 13.3515 6.66507C13.3592 6.91902 13.27 7.1664 13.102 7.35697C12.9339 7.54753 12.6997 7.66699 12.4468 7.69109C12.1938 7.71518 11.9412 7.6421 11.7402 7.48669L11.6462 7.40369L9.52523 5.28269C8.9742 4.73525 8.23232 4.42286 7.45566 4.41126C6.67901 4.39966 5.92813 4.68974 5.36099 5.22047C4.79385 5.75121 4.45467 6.48123 4.4148 7.25695C4.37494 8.03266 4.63749 8.79361 5.14723 9.37969L5.28223 9.52369L8.11123 12.3527C8.67381 12.9151 9.43674 13.231 10.2322 13.231C11.0277 13.231 11.7906 12.9151 12.3532 12.3527C12.4461 12.2598 12.5563 12.1861 12.6776 12.1358C12.799 12.0854 12.929 12.0595 13.0604 12.0595C13.1917 12.0594 13.3218 12.0853 13.4432 12.1355C13.5645 12.1857 13.6748 12.2593 13.7677 12.3522C13.8606 12.445 13.9344 12.5553 13.9847 12.6766C14.035 12.7979 14.0609 12.928 14.0609 13.0593C14.061 13.1907 14.0352 13.3208 13.9849 13.4421C13.9347 13.5635 13.8611 13.6738 13.7682 13.7667C12.8611 14.6738 11.64 15.1975 10.3576 15.2295C9.07517 15.2615 7.82949 14.7994 6.87823 13.9387L6.69623 13.7667L3.86823 10.9377C2.93087 10 2.4043 8.72851 2.4043 7.40269C2.4043 6.07687 2.93087 4.80433 3.86823 3.86669Z" fill="#181818"/>
</g>
<defs>
<clipPath id="clip0_909_8677">
<rect width="24" height="24" fill="white"/>
</clipPath>
</defs>
</svg>
