<svg width="104" height="56" viewBox="0 0 104 56" fill="none" xmlns="http://www.w3.org/2000/svg">
<rect width="104" height="56" rx="4" fill="#EAEAEF"/>
<path d="M54 25C54 24.6022 54.158 24.2206 54.4393 23.9393C54.7206 23.658 55.1022 23.5 55.5 23.5C55.8978 23.5 56.2794 23.658 56.5607 23.9393C56.842 24.2206 57 24.6022 57 25C57 25.3978 56.842 25.7794 56.5607 26.0607C56.2794 26.342 55.8978 26.5 55.5 26.5C55.1022 26.5 54.7206 26.342 54.4393 26.0607C54.158 25.7794 54 25.3978 54 25Z" fill="#92929D"/>
<path fill-rule="evenodd" clip-rule="evenodd" d="M47.2681 20.6584C50.4172 20.3847 53.584 20.3847 56.7331 20.6584L58.2431 20.7904C58.9451 20.8516 59.6061 21.1472 60.1197 21.6297C60.6332 22.1122 60.9694 22.7536 61.0741 23.4504C61.5276 26.4668 61.5276 29.534 61.0741 32.5504C60.9694 33.2473 60.6332 33.8886 60.1197 34.3712C59.6061 34.8537 58.9451 35.1493 58.2431 35.2104L56.7331 35.3414C53.5831 35.6154 50.4171 35.6154 47.2681 35.3414L45.7581 35.2104C45.0559 35.1495 44.3947 34.854 43.8809 34.3714C43.3672 33.8889 43.0308 33.2474 42.9261 32.5504C42.4726 29.534 42.4726 26.4668 42.9261 23.4504C43.0308 22.7536 43.367 22.1122 43.8805 21.6297C44.3941 21.1472 45.0551 20.8516 45.7571 20.7904L47.2681 20.6584ZM56.6031 22.1534C53.5402 21.8872 50.46 21.8872 47.3971 22.1534L45.8871 22.2844C45.5209 22.3165 45.176 22.4708 44.9081 22.7226C44.6402 22.9743 44.4648 23.3089 44.4101 23.6724C44.153 25.3831 44.0489 27.1133 44.0991 28.8424L47.9701 24.9704C48.0423 24.8983 48.1286 24.8417 48.2235 24.804C48.3184 24.7664 48.4199 24.7485 48.522 24.7515C48.624 24.7545 48.7244 24.7783 48.8169 24.8215C48.9095 24.8646 48.9922 24.9262 49.0601 25.0024L52.7321 29.1324L55.2621 28.2884C55.4008 28.242 55.5501 28.2371 55.6915 28.2745C55.8329 28.3118 55.9603 28.3896 56.0581 28.4984L59.5771 32.4084C60.0213 29.5137 60.026 26.5685 59.5911 23.6724C59.5363 23.3087 59.3608 22.974 59.0927 22.7223C58.8246 22.4705 58.4795 22.3163 58.1131 22.2844L56.6031 22.1534ZM58.6201 33.5884L55.2711 29.8674L52.7371 30.7114C52.5978 30.7579 52.448 30.7625 52.3061 30.7247C52.1643 30.6868 52.0367 30.6081 51.9391 30.4984L48.4681 26.5934L44.2241 30.8364C44.2731 31.3344 44.3341 31.8324 44.4091 32.3274C44.4636 32.6913 44.6391 33.0262 44.9072 33.2782C45.1754 33.5302 45.5205 33.6846 45.8871 33.7164L47.3971 33.8474C50.4601 34.1134 53.5401 34.1134 56.6031 33.8474L58.1131 33.7164C58.2911 33.7004 58.4631 33.6564 58.6201 33.5884Z" fill="#92929D"/>
</svg>
