<svg width="24" height="25" viewBox="0 0 24 25" fill="none" xmlns="http://www.w3.org/2000/svg">
<g clip-path="url(#clip0_3567_3326)">
<path d="M5.27636 23.7455C5.75969 24.2288 6.15169 24.6208 6.88769 23.8855C7.62302 23.1502 6.44436 21.9715 7.18036 21.2355L7.54836 20.8675C8.28436 20.1315 9.46302 21.3102 10.1977 20.5755C10.9337 19.8395 10.5417 19.4475 10.0577 18.9642L8.27302 17.1802C7.78969 16.6968 7.06769 16.6342 6.66169 17.0408L3.35236 20.3502C2.94569 20.7562 3.00836 21.4782 3.49169 21.9615L5.27636 23.7455Z" fill="white"/>
<path d="M0.68628 23.0145C0.810099 23.1383 0.957108 23.2366 1.11891 23.3036C1.28071 23.3707 1.45414 23.4052 1.62928 23.4052C1.80442 23.4052 1.97785 23.3707 2.13965 23.3036C2.30145 23.2366 2.44846 23.1383 2.57228 23.0145L15.2856 10.3018C15.2183 8.48381 18.5856 7.00181 17.6429 6.05914C17.1223 5.53847 14.8143 9.83047 12.9956 8.82047L0.68628 21.1291C0.436319 21.3792 0.295898 21.7183 0.295898 22.0718C0.295898 22.4254 0.436319 22.7644 0.68628 23.0145Z" fill="white"/>
<path d="M11.2792 2.99521C10.5915 3.68282 10.2051 4.61547 10.2051 5.58797C10.205 6.56047 10.5913 7.49317 11.2789 8.18087C11.9665 8.86858 12.8992 9.25496 13.8717 9.25503C14.8442 9.25509 15.7769 8.86882 16.4646 8.18121C17.1523 7.49359 17.5387 6.56094 17.5387 5.58844C17.5388 4.61594 17.1525 3.68325 16.4649 2.99554C15.7773 2.30783 14.8446 1.92145 13.8721 1.92139C12.8996 1.92132 11.9669 2.30759 11.2792 2.99521ZM15.5212 7.23787C15.0836 7.67548 14.4901 7.92133 13.8712 7.92133C13.2524 7.92133 12.6588 7.67548 12.2212 7.23787C11.7836 6.80027 11.5378 6.20674 11.5378 5.58787C11.5378 5.28144 11.5981 4.97801 11.7154 4.6949C11.8327 4.41179 12.0046 4.15455 12.2212 3.93787C12.6588 3.50027 13.2524 3.25442 13.8712 3.25442C14.4901 3.25442 15.0836 3.50027 15.5212 3.93787C15.9588 4.37548 16.2047 4.969 16.2047 5.58787C16.2047 6.20674 15.9588 6.80027 15.5212 7.23787Z" fill="white"/>
<path d="M17.4073 1.58136C17.0594 1.92014 16.7823 2.32464 16.5921 2.77139C16.4018 3.21813 16.3021 3.69822 16.2989 4.18379C16.2957 4.66936 16.3889 5.15073 16.5732 5.59996C16.7576 6.0492 17.0293 6.45735 17.3726 6.80073C17.7159 7.14411 18.1241 7.41587 18.5733 7.60024C19.0225 7.78461 19.5038 7.87793 19.9894 7.87476C20.475 7.87159 20.9551 7.77201 21.4018 7.5818C21.8486 7.39158 22.2532 7.11452 22.592 6.76669C23.2647 6.0761 23.6384 5.14834 23.6321 4.18426C23.6258 3.22019 23.2401 2.29738 22.5584 1.61561C21.8767 0.93385 20.954 0.547996 19.9899 0.541585C19.0258 0.535174 18.098 0.908723 17.4073 1.58136ZM21.65 5.82403C21.4332 6.04066 21.1759 6.21248 20.8927 6.32968C20.6095 6.44687 20.3061 6.50714 19.9996 6.50705C19.6931 6.50696 19.3897 6.4465 19.1066 6.32914C18.8235 6.21177 18.5663 6.0398 18.3496 5.82303C18.133 5.60626 17.9612 5.34894 17.844 5.06577C17.7268 4.7826 17.6665 4.47912 17.6666 4.17265C17.6667 3.86619 17.7272 3.56274 17.8445 3.27964C17.9619 2.99654 18.1339 2.73933 18.3506 2.52269C18.7884 2.08517 19.3821 1.83948 20.001 1.83967C20.6199 1.83986 21.2135 2.08591 21.651 2.52369C22.0885 2.96148 22.3342 3.55514 22.334 4.17407C22.3338 4.793 22.0878 5.38651 21.65 5.82403Z" fill="white"/>
<path d="M15.9931 7.70956C15.6526 8.05004 15.3825 8.45425 15.1982 8.89911C15.0139 9.34398 14.919 9.82079 14.9189 10.3023C14.9189 10.7839 15.0137 11.2607 15.198 11.7056C15.3822 12.1505 15.6523 12.5547 15.9928 12.8952C16.3332 13.2357 16.7374 13.5059 17.1823 13.6902C17.6272 13.8745 18.104 13.9694 18.5855 13.9694C19.0671 13.9694 19.5439 13.8746 19.9888 13.6904C20.4337 13.5061 20.8379 13.236 21.1784 12.8956C21.8661 12.2079 22.2525 11.2753 22.2526 10.3028C22.2526 9.3303 21.8664 8.3976 21.1788 7.7099C20.4911 7.02219 19.5585 6.6358 18.586 6.63574C17.6135 6.63568 16.6808 7.02194 15.9931 7.70956ZM20.2364 11.9522C19.7988 12.3898 19.2053 12.6357 18.5864 12.6357C17.9676 12.6357 17.374 12.3898 16.9364 11.9522C16.4988 11.5146 16.253 10.9211 16.253 10.3022C16.253 9.68336 16.4988 9.08984 16.9364 8.65223C17.374 8.21462 17.9676 7.96878 18.5864 7.96878C19.2053 7.96878 19.7988 8.21462 20.2364 8.65223C20.674 9.08984 20.9199 9.68336 20.9199 10.3022C20.9199 10.9211 20.674 11.5146 20.2364 11.9522Z" fill="white"/>
<path d="M12.929 12.6588C13.1791 12.9089 13.3196 13.2482 13.3196 13.6018C13.3196 13.9555 13.1791 14.2947 12.929 14.5448C12.6789 14.7949 12.3397 14.9354 11.986 14.9354C11.6323 14.9354 11.2931 14.7949 11.043 14.5448L9.15697 12.6588C8.90696 12.4087 8.76654 12.0696 8.7666 11.7159C8.76666 11.3623 8.9072 11.0232 9.1573 10.7732C9.4074 10.5232 9.74657 10.3828 10.1002 10.3828C10.4538 10.3829 10.793 10.5234 11.043 10.7735L12.929 12.6588Z" fill="white"/>
<path d="M17.3337 7.16683C17.7018 7.16683 18.0003 6.86835 18.0003 6.50016C18.0003 6.13197 17.7018 5.8335 17.3337 5.8335C16.9655 5.8335 16.667 6.13197 16.667 6.50016C16.667 6.86835 16.9655 7.16683 17.3337 7.16683Z" fill="white"/>
</g>
<defs>
<clipPath id="clip0_3567_3326">
<rect width="24" height="24" fill="white" transform="translate(0 0.5)"/>
</clipPath>
</defs>
</svg>
