<svg width="24" height="25" viewBox="0 0 24 25" fill="none" xmlns="http://www.w3.org/2000/svg">
<path fill-rule="evenodd" clip-rule="evenodd" d="M11.9996 2.75C11.4502 2.75 10.9133 2.91458 10.4583 3.22253C10.0033 3.53048 9.65092 3.96768 9.44668 4.47775C9.24244 4.98782 9.19567 5.54737 9.31241 6.08427C9.42914 6.62117 9.70403 7.11079 10.1016 7.49L9.90162 7.846L8.10462 11.069C7.98977 11.2854 7.86532 11.4967 7.73162 11.702C7.71313 11.7288 7.6931 11.7545 7.67162 11.779C7.64386 11.7612 7.61715 11.7419 7.59162 11.721C7.40652 11.56 7.22868 11.3908 7.05862 11.214L6.97862 11.135C6.69509 10.8464 6.40434 10.565 6.10662 10.291C6.26372 9.87227 6.29246 9.41623 6.18919 8.98109C6.08592 8.54595 5.85532 8.15146 5.52682 7.84798C5.19832 7.5445 4.78684 7.3458 4.3449 7.27724C3.90296 7.20869 3.45061 7.27339 3.04561 7.46309C2.64061 7.6528 2.30133 7.95889 2.07109 8.34229C1.84085 8.7257 1.73008 9.16902 1.75294 9.61566C1.7758 10.0623 1.93125 10.492 2.19943 10.8499C2.46761 11.2078 2.83637 11.4776 3.25862 11.625L3.26862 11.798C3.29262 12.123 3.33462 12.512 3.38162 12.956L3.56662 14.673L3.65362 15.503C3.76562 16.586 3.87362 17.621 4.03362 18.494C4.13362 19.046 4.26162 19.566 4.43762 20.017C4.61262 20.465 4.85462 20.892 5.21162 21.212C5.84162 21.776 6.60162 22.022 7.50762 22.138C8.38262 22.25 9.48562 22.25 10.8596 22.25H13.1396C14.5136 22.25 15.6166 22.25 16.4916 22.138C17.3986 22.022 18.1576 21.776 18.7876 21.212C19.1446 20.892 19.3866 20.465 19.5616 20.017C19.7376 19.566 19.8656 19.046 19.9666 18.494C20.1266 17.621 20.2336 16.586 20.3456 15.504L20.4326 14.674L20.6176 12.957C20.6646 12.512 20.7076 12.123 20.7296 11.798L20.7406 11.625C21.1629 11.4776 21.5316 11.2078 21.7998 10.8499C22.068 10.492 22.2234 10.0623 22.2463 9.61566C22.2692 9.16902 22.1584 8.7257 21.9282 8.34229C21.6979 7.95889 21.3586 7.6528 20.9536 7.46309C20.5486 7.27339 20.0963 7.20869 19.6543 7.27724C19.2124 7.3458 18.8009 7.5445 18.4724 7.84798C18.1439 8.15146 17.9133 8.54595 17.8101 8.98109C17.7068 9.41623 17.7355 9.87227 17.8926 10.291C17.6286 10.528 17.3386 10.817 17.0196 11.135L16.9406 11.214C16.6826 11.472 16.5286 11.624 16.4076 11.721C16.3821 11.7419 16.3554 11.7612 16.3276 11.779C16.3062 11.7545 16.2861 11.7288 16.2676 11.702C16.1339 11.4967 16.0095 11.2855 15.8946 11.069L14.0976 7.846L13.8976 7.49C14.2952 7.11079 14.5701 6.62117 14.6868 6.08427C14.8036 5.54737 14.7568 4.98782 14.5526 4.47775C14.3483 3.96768 13.996 3.53048 13.5409 3.22253C13.0859 2.91458 12.5491 2.75 11.9996 2.75ZM10.7496 5.5C10.7496 5.16848 10.8813 4.85054 11.1157 4.61612C11.3502 4.3817 11.6681 4.25 11.9996 4.25C12.3311 4.25 12.6491 4.3817 12.8835 4.61612C13.1179 4.85054 13.2496 5.16848 13.2496 5.5C13.2496 5.83152 13.1179 6.14946 12.8835 6.38388C12.6491 6.6183 12.3311 6.75 11.9996 6.75C11.6681 6.75 11.3502 6.6183 11.1157 6.38388C10.8813 6.14946 10.7496 5.83152 10.7496 5.5ZM11.2046 8.59C11.2846 8.445 11.3596 8.312 11.4286 8.19C11.8051 8.26973 12.1941 8.26973 12.5706 8.19C12.6406 8.312 12.7136 8.445 12.7946 8.59L14.6016 11.83C14.7566 12.108 14.8996 12.365 15.0396 12.564C15.1886 12.775 15.3906 13.009 15.7016 13.146C15.9696 13.264 16.2656 13.305 16.5556 13.265C16.8916 13.218 17.1506 13.049 17.3516 12.887C17.5396 12.734 17.7486 12.526 17.9756 12.301L17.9996 12.277C18.3746 11.903 18.6496 11.632 18.8596 11.44C18.9796 11.51 19.1056 11.57 19.2386 11.618L19.2336 11.692C19.2136 11.986 19.1736 12.349 19.1236 12.808L18.9416 14.513L18.8496 15.383C18.7796 16.053 18.7156 16.678 18.6406 17.25H5.35862C5.28047 16.6283 5.21046 16.0056 5.14862 15.382C5.12062 15.1 5.08962 14.81 5.05862 14.512L4.87462 12.808C4.82954 12.412 4.79154 12.0153 4.76062 11.618C4.89362 11.57 5.02062 11.51 5.14062 11.44C5.35062 11.632 5.62462 11.903 6.00062 12.277L6.02362 12.301C6.25062 12.526 6.45962 12.734 6.64762 12.887C6.84862 13.049 7.10762 13.218 7.44362 13.265C7.73362 13.305 8.02962 13.264 8.29762 13.145C8.60762 13.009 8.81162 12.775 8.95962 12.564C9.11764 12.3264 9.26382 12.0811 9.39762 11.829L11.2046 8.59ZM5.61762 18.75C5.68262 19.026 5.75462 19.266 5.83462 19.47C5.96462 19.8 6.09562 19.99 6.21162 20.094C6.52862 20.377 6.95062 20.554 7.69862 20.65C8.46662 20.749 9.47362 20.75 10.9116 20.75H13.0876C14.5256 20.75 15.5326 20.749 16.3006 20.65C17.0486 20.555 17.4706 20.377 17.7876 20.094C17.9036 19.99 18.0356 19.8 18.1646 19.471C18.2446 19.266 18.3166 19.026 18.3816 18.75H5.61762ZM3.24962 9.5C3.24963 9.35205 3.2934 9.20741 3.37542 9.08427C3.45744 8.96114 3.57405 8.86501 3.71057 8.80799C3.84709 8.75097 3.99743 8.7356 4.14266 8.76382C4.2879 8.79204 4.42154 8.86258 4.52678 8.96657C4.63202 9.07056 4.70415 9.20335 4.7341 9.34824C4.76404 9.49313 4.75047 9.64364 4.69508 9.78083C4.63969 9.91802 4.54497 10.0358 4.42282 10.1193C4.30067 10.2027 4.15656 10.2482 4.00862 10.25H3.99962C3.80071 10.25 3.60994 10.171 3.46929 10.0303C3.32864 9.88968 3.24962 9.69891 3.24962 9.5ZM19.2496 9.5C19.2496 9.35166 19.2936 9.20666 19.376 9.08332C19.4584 8.95999 19.5756 8.86386 19.7126 8.80709C19.8497 8.75033 20.0005 8.73547 20.1459 8.76441C20.2914 8.79335 20.4251 8.86478 20.53 8.96967C20.6348 9.07456 20.7063 9.2082 20.7352 9.35368C20.7642 9.49917 20.7493 9.64997 20.6925 9.78701C20.6358 9.92406 20.5396 10.0412 20.4163 10.1236C20.293 10.206 20.148 10.25 19.9996 10.25H19.9906C19.793 10.2484 19.6041 10.1686 19.4652 10.028C19.3263 9.88747 19.2488 9.6976 19.2496 9.5Z" fill="white"/>
</svg>
