<svg width="42" height="42" viewBox="0 0 42 42" fill="none" xmlns="http://www.w3.org/2000/svg">
<path d="M21 35.5924H41.4286M21 35.5924C21 36.1673 20.8868 36.7366 20.6667 37.2678C20.4467 37.7989 20.1242 38.2816 19.7177 38.6881C19.3112 39.0946 18.8285 39.4171 18.2974 39.6371C17.7662 39.8571 17.1969 39.9704 16.622 39.9704C16.0471 39.9704 15.4778 39.8571 14.9466 39.6371C14.4154 39.4171 13.9328 39.0946 13.5263 38.6881C13.1197 38.2816 12.7973 37.7989 12.5773 37.2678C12.3572 36.7366 12.244 36.1673 12.244 35.5924C12.244 35.0175 12.3572 34.4482 12.5773 33.917C12.7973 33.3858 13.1197 32.9032 13.5263 32.4967C13.9328 32.0901 14.4154 31.7677 14.9466 31.5476C15.4778 31.3276 16.0471 31.2144 16.622 31.2144C17.1969 31.2144 17.7662 31.3276 18.2974 31.5476C18.8285 31.7677 19.3112 32.0901 19.7177 32.4967C20.1242 32.9032 20.4467 33.3858 20.6667 33.917C20.8868 34.4482 21 35.0175 21 35.5924ZM41.4286 35.5924L35.5923 29.7561M41.4286 35.5924L35.5923 41.4287M9.32742 4.94953C9.32742 6.11065 9.78868 7.22421 10.6097 8.04525C11.4307 8.86628 12.5443 9.32753 13.7054 9.32753C14.8665 9.32753 15.9801 8.86628 16.8011 8.04525C17.6222 7.22421 18.0834 6.11065 18.0834 4.94953C18.0834 3.78842 17.6222 2.67485 16.8011 1.85382C15.9801 1.03279 14.8665 0.571533 13.7054 0.571533C12.5443 0.571533 11.4307 1.03279 10.6097 1.85382C9.78868 2.67485 9.32742 3.78842 9.32742 4.94953ZM21 19.5418C21 20.7029 21.4612 21.8165 22.2823 22.6375C23.1033 23.4586 24.2169 23.9198 25.378 23.9198C26.5391 23.9198 27.6527 23.4586 28.4737 22.6375C29.2947 21.8165 29.756 20.7029 29.756 19.5418C29.756 18.3807 29.2947 17.2671 28.4737 16.4461C27.6527 15.6251 26.5391 15.1638 25.378 15.1638C24.2169 15.1638 23.1033 15.6251 22.2823 16.4461C21.4612 17.2671 21 18.3807 21 19.5418Z" stroke="black" stroke-linecap="round" stroke-linejoin="round"/>
<path d="M21 19.5417H8.59828C6.49735 19.5833 4.49649 20.4471 3.02538 21.9476C1.55428 23.4481 0.73025 25.4657 0.73025 27.567C0.73025 29.6684 1.55428 31.6859 3.02538 33.1864C4.49649 34.687 6.49735 35.5507 8.59828 35.5923H12.244M29.756 19.5417H34.134C36.0691 19.5417 37.9249 18.773 39.2931 17.4048C40.6614 16.0365 41.4301 14.1807 41.4301 12.2456C41.4301 10.3105 40.6614 8.45475 39.2931 7.08645C37.9249 5.71816 36.0691 4.94946 34.134 4.94946H18.0771M9.32743 4.94946H0.571426" stroke="black" stroke-linecap="round" stroke-linejoin="round"/>
</svg>
