<svg width="37" height="44" viewBox="0 0 37 44" fill="none" xmlns="http://www.w3.org/2000/svg">
<mask id="path-1-inside-1_176_1221" fill="white">
<path d="M0 0.5C0 0.223857 0.223858 0 0.5 0H36.3649C36.641 0 36.8649 0.223858 36.8649 0.5V41C36.8649 42.6569 35.5217 44 33.8649 44H0.5C0.223857 44 0 43.7761 0 43.5V0.5Z"/>
</mask>
<path d="M0 0.5C0 0.223857 0.223858 0 0.5 0H36.3649C36.641 0 36.8649 0.223858 36.8649 0.5V41C36.8649 42.6569 35.5217 44 33.8649 44H0.5C0.223857 44 0 43.7761 0 43.5V0.5Z" stroke="#979797" stroke-width="2" mask="url(#path-1-inside-1_176_1221)"/>
<path d="M3.56757 4.16211H9.51351" stroke="#130D3A" stroke-linecap="round"/>
<path d="M3.56757 22.5947H11.8919" stroke="#130D3A" stroke-linecap="round"/>
<path d="M3.56757 27.3513H16.6486" stroke="#130D3A" stroke-linecap="round"/>
<path d="M19.027 27.3513H32.1081" stroke="#130D3A" stroke-linecap="round"/>
<path d="M3.56757 32.1082H32.1081" stroke="#130D3A" stroke-linecap="round"/>
<path d="M3.56757 36.8647H32.1081" stroke="#130D3A" stroke-linecap="round"/>
<rect x="3.56757" y="9.51343" width="2.37838" height="5.94595" fill="#FFBA00"/>
<rect x="7.13513" y="8.32422" width="2.37838" height="7.13514" fill="#E94235"/>
<rect x="10.7027" y="11.8918" width="2.37838" height="3.56757" fill="#00AC47"/>
<path d="M28.5956 17.0948C27.058 17.8979 25.2644 18.0572 23.6093 17.5379C21.9542 17.0185 20.5732 15.863 19.7702 14.3254C18.9671 12.7878 18.8077 10.9942 19.3271 9.33913C19.8464 7.68405 21.002 6.30306 22.5395 5.49998L25.5676 11.2974L28.5956 17.0948Z" fill="#0066DA"/>
<path d="M32.5653 10.2221C32.6315 11.4479 32.3513 12.6677 31.7569 13.7417C31.1625 14.8158 30.2778 15.701 29.204 16.2959L26.0343 10.5748L32.5653 10.2221Z" fill="#FFBA00"/>
<mask id="path-13-inside-2_176_1221" fill="white">
<path d="M22.6337 4.26256C23.6061 3.77452 24.6849 3.53676 25.7724 3.57083C26.8599 3.6049 27.9216 3.90972 28.8616 4.45768C29.8015 5.00564 30.59 5.77943 31.1554 6.70896C31.7209 7.63849 32.0455 8.69439 32.0999 9.78104L25.5676 10.1082L22.6337 4.26256Z"/>
</mask>
<path d="M22.6337 4.26256C23.6061 3.77452 24.6849 3.53676 25.7724 3.57083C26.8599 3.6049 27.9216 3.90972 28.8616 4.45768C29.8015 5.00564 30.59 5.77943 31.1554 6.70896C31.7209 7.63849 32.0455 8.69439 32.0999 9.78104L25.5676 10.1082L22.6337 4.26256Z" stroke="#0066DA" mask="url(#path-13-inside-2_176_1221)"/>
</svg>
