<svg width="66" height="47" viewBox="0 0 66 47" fill="none" xmlns="http://www.w3.org/2000/svg">
<g clip-path="url(#clip0_378_771)">
<path d="M19.779 46.5185H12.3355C11.848 46.5185 11.3724 46.2527 11.1464 45.8058C10.885 45.2864 10.98 44.6703 11.3842 44.2717L16.5686 39.0052H12.8468C11.8242 39.0052 11.0037 38.1596 11.0037 37.1328H17.8646C18.3521 37.1328 18.8277 37.3986 19.0536 37.8455C19.3153 38.3649 19.2201 38.9809 18.8159 39.3795L13.6316 44.6462H17.9241C18.9466 44.6462 19.779 45.4918 19.779 46.5185ZM49.2437 37C48.1737 37 47.2224 37.4711 46.5565 38.22C45.8906 37.4711 44.9393 37 43.8693 37C41.8954 37 40.2783 38.7152 40.2783 40.7204V46.5185C41.3008 46.5185 42.1213 45.6729 42.1213 44.6462V40.7084C42.1213 39.742 42.8585 38.9206 43.8097 38.8844C44.8086 38.8482 45.629 39.6574 45.629 40.66V44.6462C45.629 45.685 46.4614 46.5185 47.4721 46.5185V40.6963C47.4721 39.7299 48.2093 38.9085 49.1605 38.8723C50.1593 38.8361 50.9798 39.6454 50.9798 40.648V44.6341C50.9798 45.673 51.8122 46.5064 52.8228 46.5064V40.7085C52.8347 38.7152 51.2176 37 49.2437 37ZM29.1012 41.8317C29.1012 44.5012 26.9728 46.6634 24.345 46.6634C21.7172 46.6634 19.5888 44.5012 19.5888 41.8317C19.5888 39.1622 21.7172 37 24.345 37C26.9728 37 29.1012 39.1622 29.1012 41.8317ZM27.2581 41.8317C27.2581 40.201 25.9502 38.8723 24.345 38.8723C22.7398 38.8723 21.4317 40.201 21.4317 41.8317C21.4317 43.4625 22.7398 44.7912 24.345 44.7912C25.9502 44.7912 27.2581 43.4625 27.2581 41.8317ZM39.3508 41.8317C39.3508 44.5012 37.2224 46.6634 34.5946 46.6634C31.9668 46.6634 29.8384 44.5012 29.8384 41.8317C29.8384 39.1622 31.9668 37 34.5946 37C37.2224 37 39.3508 39.1622 39.3508 41.8317M37.5079 41.8317C37.5079 40.201 36.1999 38.8723 34.5947 38.8723C32.9895 38.8723 31.6815 40.201 31.6815 41.8317C31.6815 43.4625 32.9895 44.7912 34.5947 44.7912C36.1999 44.7912 37.5079 43.4625 37.5079 41.8317Z" fill="#0B5CFF"/>
</g>
<g clip-path="url(#clip1_378_771)">
<path d="M51.4046 19.0209L54.6809 22.7568L59.0869 25.5653L59.8533 19.0444L59.0869 12.6707L54.5965 15.1378L51.4046 19.0209Z" fill="#00832D"/>
<path d="M32.3924 24.9585V30.5152C32.3924 31.784 33.4248 32.8141 34.6969 32.8141H40.2671L41.4205 28.6156L40.2671 24.9585L36.4455 23.8079L32.3924 24.9585Z" fill="#0066DA"/>
<path d="M40.2671 5.22778L32.3924 13.0834L36.4458 14.2313L40.2671 13.0834L41.3995 9.47605L40.2671 5.22778Z" fill="#E94235"/>
<path d="M32.3925 24.9609H40.2671V13.0833H32.3925V24.9609Z" fill="#2684FC"/>
<path d="M64.1173 8.5539L59.0868 12.6708V25.5653L64.1381 29.6982C64.8942 30.2891 66.0004 29.7506 66.0004 28.7917V9.44208C66.0004 8.47257 64.8678 7.93668 64.1172 8.55403" fill="#00AC47"/>
<path d="M51.4046 19.021V24.9585H40.2671V32.8141H56.7826C58.0547 32.8141 59.0869 31.784 59.0869 30.5152V25.5654L51.4046 19.021Z" fill="#00AC47"/>
<path d="M56.7826 5.22778H40.2671V13.0834H51.4046V19.0209L59.0871 12.6706V7.52682C59.0871 6.2578 58.0547 5.22791 56.7826 5.22791" fill="#FFBA00"/>
</g>
<g clip-path="url(#clip2_378_771)">
<path d="M20.8371 10.325H28.5534C29.2825 10.325 29.8734 10.9106 29.8734 11.6328V18.5967C29.8734 21.2513 27.7014 23.4034 25.0221 23.4034H24.9991C22.3199 23.4038 20.1475 21.2521 20.1472 18.5974V11.0086C20.1471 10.9188 20.1649 10.8299 20.1996 10.747C20.2342 10.664 20.2851 10.5886 20.3491 10.5251C20.4132 10.4616 20.4893 10.4113 20.573 10.3769C20.6567 10.3426 20.7464 10.3249 20.8371 10.325Z" fill="#5059C9"/>
<path d="M26.0524 8.94851C27.779 8.94851 29.1787 7.56169 29.1787 5.85096C29.1787 4.14024 27.779 2.75342 26.0524 2.75342C24.3258 2.75342 22.9261 4.14024 22.9261 5.85096C22.9261 7.56169 24.3258 8.94851 26.0524 8.94851Z" fill="#5059C9"/>
<path d="M16.3262 8.94844C18.8202 8.94844 20.842 6.94526 20.842 4.47422C20.842 2.00318 18.8202 0 16.3262 0C13.8322 0 11.8104 2.00318 11.8104 4.47422C11.8104 6.94526 13.8322 8.94844 16.3262 8.94844Z" fill="#7B83EB"/>
<path d="M22.3474 10.325H9.61026C8.88991 10.3426 8.3201 10.935 8.33679 11.6487V19.5913C8.2362 23.8743 11.6561 27.4286 15.9788 27.5334C20.3014 27.4286 23.7214 23.8743 23.6209 19.5913V11.6487C23.6376 10.935 23.0678 10.3426 22.3474 10.325Z" fill="#7B83EB"/>
<path opacity="0.1" d="M16.6736 10.325V21.4554C16.6719 21.705 16.5958 21.9486 16.4549 22.1556C16.314 22.3625 16.1146 22.5237 15.8816 22.6187C15.7299 22.6823 15.5668 22.715 15.4022 22.715H8.94802C8.8577 22.4878 8.77438 22.2606 8.70483 22.0267C8.46163 21.2369 8.33757 20.4158 8.33666 19.59V11.6466C8.31997 10.934 8.88885 10.3426 9.60803 10.3251L16.6736 10.325Z" fill="black"/>
<path opacity="0.2" d="M15.9788 10.325V22.1437C15.9788 22.3069 15.9458 22.4684 15.8816 22.6187C15.7856 22.8496 15.623 23.0472 15.4141 23.1868C15.2052 23.3264 14.9594 23.4018 14.7074 23.4034H9.27477C9.15667 23.1762 9.04547 22.949 8.94826 22.715C8.85487 22.4901 8.77369 22.2603 8.70507 22.0267C8.46187 21.2369 8.33781 20.4157 8.33691 19.59V11.6466C8.32022 10.934 8.8891 10.3426 9.60828 10.3251L15.9788 10.325Z" fill="black"/>
<path opacity="0.2" d="M15.9788 10.325V20.7671C15.9735 21.4606 15.4074 22.0215 14.7074 22.0267H8.70495C8.46175 21.2369 8.33769 20.4157 8.33678 19.59V11.6466C8.3201 10.934 8.88897 10.3426 9.60815 10.3251L15.9788 10.325Z" fill="black"/>
<path opacity="0.2" d="M15.2841 10.325V20.7671C15.2787 21.4606 14.7127 22.0215 14.0127 22.0267H8.70495C8.46175 21.2369 8.33769 20.4157 8.33678 19.59V11.6466C8.3201 10.934 8.88897 10.3426 9.60815 10.3251L15.2841 10.325Z" fill="black"/>
<path opacity="0.1" d="M16.6736 6.76626V8.93446C16.5555 8.9414 16.4443 8.94834 16.3262 8.94834C16.2081 8.94834 16.0969 8.9414 15.9788 8.93446C15.7443 8.91904 15.5118 8.8822 15.2841 8.82439C14.5906 8.66164 13.9457 8.33856 13.4024 7.88155C12.859 7.42455 12.4325 6.84661 12.1578 6.19499C12.0619 5.97301 11.9874 5.74251 11.9355 5.50659H15.4022C16.1032 5.50925 16.6709 6.07162 16.6736 6.76626Z" fill="black"/>
<path opacity="0.2" d="M15.9788 7.45462V8.93454C15.7443 8.91912 15.5117 8.88228 15.2841 8.82447C14.5906 8.66171 13.9458 8.33861 13.4024 7.88161C12.8591 7.42461 12.4326 6.84667 12.1579 6.19507H14.7074C15.4085 6.19761 15.9761 6.7601 15.9788 7.45462Z" fill="black"/>
<path opacity="0.2" d="M15.9788 7.45462V8.93454C15.7443 8.91912 15.5117 8.88228 15.2841 8.82447C14.5906 8.66171 13.9458 8.33861 13.4024 7.88161C12.8591 7.42461 12.4326 6.84667 12.1579 6.19507H14.7074C15.4085 6.19761 15.9761 6.7601 15.9788 7.45462Z" fill="black"/>
<path opacity="0.2" d="M15.2841 7.45474V8.82459C14.5905 8.66183 13.9457 8.33872 13.4023 7.8817C12.8589 7.42468 12.4325 6.84671 12.1578 6.19507H14.0127C14.7138 6.19773 15.2814 6.76021 15.2841 7.45474Z" fill="black"/>
<path d="M1.27347 6.19494H14.0105C14.7139 6.19494 15.2841 6.75985 15.2841 7.45669V20.0766C15.2841 20.7734 14.7139 21.3384 14.0106 21.3384H1.27347C0.570162 21.3384 0 20.7734 0 20.0766V7.4568C0 6.75974 0.570162 6.19494 1.27347 6.19494Z" fill="url(#paint0_linear_378_771)"/>
<path d="M10.9934 10.9982H8.44717V17.8678H6.82502V10.9982H4.29068V9.66553H10.9934V10.9982Z" fill="white"/>
</g>
<defs>
<linearGradient id="paint0_linear_378_771" x1="265.515" y1="-92.3895" x2="1249.14" y2="1627" gradientUnits="userSpaceOnUse">
<stop stop-color="#5A62C3"/>
<stop offset="0.5" stop-color="#4D55BD"/>
<stop offset="1" stop-color="#3940AB"/>
</linearGradient>
<clipPath id="clip0_378_771">
<rect width="41.8228" height="9.70886" fill="white" transform="translate(11 37)"/>
</clipPath>
<clipPath id="clip1_378_771">
<rect width="33.6076" height="27.6329" fill="white" transform="translate(32.3924 5.22778)"/>
</clipPath>
<clipPath id="clip2_378_771">
<rect width="29.8734" height="27.6329" fill="white"/>
</clipPath>
</defs>
</svg>
