<svg width="1600" height="769" viewBox="0 0 1600 769" fill="none" xmlns="http://www.w3.org/2000/svg">
<rect width="1600" height="600" fill="#F4F7FA"/>
<path fill-rule="evenodd" clip-rule="evenodd" d="M959.503 430H959.49C958.912 430 958.406 430.229 957.984 430.558C957.903 430.623 957.801 430.66 957.728 430.733C957.324 431.14 957.09 431.697 957.039 432.304C957.034 432.372 957 432.431 957 432.501C957 432.81 957.073 433.098 957.176 433.37C957.21 433.458 957.252 433.534 957.295 433.617C957.386 433.795 957.496 433.96 957.628 434.111C957.693 434.186 957.75 434.262 957.823 434.328C958.023 434.51 958.243 434.669 958.494 434.779H958.496C958.806 434.917 959.144 435 959.503 435C960.616 435 961.526 434.26 961.849 433.251C961.936 433.02 961.995 432.779 961.997 432.514C961.997 432.509 962 432.506 962 432.501C962 431.118 960.882 430 959.503 430ZM994.43 400.188C994.188 400.087 993.918 400.047 993.642 400.029C993.593 400.027 993.554 400 993.503 400H993.49C992.111 400 991 401.119 991 402.502C991 402.838 991.071 403.155 991.191 403.443C991.276 403.65 991.415 403.816 991.545 403.991C991.6 404.057 991.63 404.138 991.688 404.199C992.103 404.64 992.675 404.912 993.315 404.963C993.319 404.963 993.322 404.964 993.326 404.966V404.964C993.387 404.969 993.441 405 993.503 405C994.882 405 996 403.881 996 402.502C996 401.45 995.348 400.558 994.43 400.188ZM908.503 356H908.49C907.111 356 906 357.119 906 358.5C906 359.879 907.125 361 908.503 361C909.88 361 911 359.879 911 358.5C911 357.119 909.88 356 908.503 356ZM908.503 415H908.49C907.111 415 906 416.118 906 417.501C906 418.88 907.125 420 908.503 420C909.88 420 911 418.88 911 417.501C911 416.118 909.88 415 908.503 415ZM925.503 376C926.882 376 928 374.879 928 373.5C928 372.118 926.882 371 925.503 371H925.492C924.111 371 923 372.118 923 373.5C923 374.879 924.125 376 925.503 376ZM908.503 341H908.49C907.111 341 906 342.119 906 343.5C906 344.881 907.125 346 908.503 346C909.88 346 911 344.881 911 343.5C911 342.119 909.88 341 908.503 341ZM908.503 385H908.49C907.111 385 906 386.119 906 387.5C906 388.881 907.125 390 908.503 390C909.88 390 911 388.881 911 387.5C911 386.119 909.88 385 908.503 385ZM908.503 400H908.49C907.111 400 906 401.119 906 402.502C906 403.881 907.125 405 908.503 405C909.88 405 911 403.881 911 402.502C911 401.119 909.88 400 908.503 400ZM925.503 346C926.882 346 928 344.881 928 343.5C928 342.119 926.882 341 925.503 341H925.492C924.111 341 923 342.119 923 343.5C923 344.881 924.125 346 925.503 346ZM925.503 361C926.882 361 928 359.879 928 358.5C928 357.119 926.882 356 925.503 356H925.492C924.111 356 923 357.119 923 358.5C923 359.879 924.125 361 925.503 361ZM925.503 331C926.882 331 928 329.881 928 328.5C928 327.119 926.882 326 925.503 326H925.492C924.111 326 923 327.119 923 328.5C923 329.881 924.125 331 925.503 331ZM908.503 371H908.49C907.111 371 906 372.118 906 373.5C906 374.879 907.125 376 908.503 376C909.88 376 911 374.879 911 373.5C911 372.118 909.88 371 908.503 371ZM891.505 385H891.49C890.111 385 889 386.119 889 387.5C889 388.881 890.126 390 891.505 390C892.884 390 894 388.881 894 387.5C894 386.119 892.884 385 891.505 385ZM891.505 371H891.49C890.111 371 889 372.118 889 373.5C889 374.879 890.126 376 891.505 376C892.884 376 894 374.879 894 373.5C894 372.118 892.884 371 891.505 371ZM891.504 400H891.489C891.176 400 890.882 400.071 890.61 400.18C890.471 400.232 890.355 400.317 890.23 400.393C890.125 400.46 890.018 400.519 889.923 400.602C889.759 400.736 889.63 400.892 889.505 401.065C889.481 401.101 889.457 401.133 889.434 401.172C889.298 401.382 889.198 401.603 889.13 401.85L889.129 401.852V401.854C889.071 402.064 889 402.271 889 402.502C889 403.485 889.585 404.318 890.413 404.725V404.727H890.415C890.745 404.888 891.101 404.995 891.491 404.997C891.496 404.997 891.499 405 891.504 405C892.883 405 894 403.881 894 402.502C894 402.156 893.931 401.827 893.803 401.528C893.426 400.631 892.538 400 891.504 400ZM976.503 371H976.49C975.111 371 974 372.118 974 373.5C974 374.879 975.125 376 976.503 376C977.882 376 979 374.879 979 373.5C979 372.118 977.882 371 976.503 371ZM891.504 356H891.489C891.204 356 890.942 356.063 890.694 356.161C890.469 356.239 890.272 356.356 890.083 356.492C890.081 356.492 890.081 356.492 890.079 356.494C889.441 356.946 889 357.655 889 358.5C889 358.607 889.047 358.697 889.061 358.802H889.059C889.059 358.805 889.061 358.807 889.063 358.809C889.141 359.418 889.413 359.955 889.849 360.345C889.908 360.4 889.983 360.43 890.045 360.478C890.217 360.603 890.381 360.734 890.583 360.813C890.865 360.93 891.174 361 891.504 361C892.538 361 893.426 360.371 893.803 359.472C893.931 359.173 894 358.844 894 358.5C894 358.156 893.931 357.827 893.803 357.528C893.426 356.629 892.538 356 891.504 356ZM976.503 385H976.49C975.111 385 974 386.119 974 387.5C974 388.881 975.125 390 976.503 390C977.882 390 979 388.881 979 387.5C979 386.119 977.882 385 976.503 385ZM976.503 356H976.49C975.111 356 974 357.119 974 358.5C974 359.879 975.125 361 976.503 361C977.882 361 979 359.879 979 358.5C979 357.119 977.882 356 976.503 356ZM976.503 415H976.49C975.111 415 974 416.118 974 417.501C974 418.88 975.125 420 976.503 420C977.882 420 979 418.88 979 417.501C979 416.118 977.882 415 976.503 415ZM976.503 400H976.49C975.111 400 974 401.119 974 402.502C974 403.881 975.125 405 976.503 405C977.882 405 979 403.881 979 402.502C979 401.119 977.882 400 976.503 400ZM959.504 331C960.882 331 962 329.881 962 328.5C962 328.5 961.998 328.498 961.998 328.497C961.998 328.091 961.88 327.723 961.707 327.384C961.69 327.352 961.668 327.328 961.65 327.297C961.468 326.977 961.221 326.711 960.921 326.497H960.92C960.512 326.207 960.041 326 959.504 326H959.491C958.112 326 957 327.119 957 328.5C957 329.881 958.126 331 959.504 331ZM976.503 341H976.49C975.111 341 974 342.119 974 343.5C974 344.881 975.125 346 976.503 346C977.882 346 979 344.881 979 343.5C979 342.119 977.882 341 976.503 341ZM959.503 356H959.49C958.111 356 957 357.119 957 358.5C957 359.879 958.125 361 959.503 361C960.882 361 962 359.879 962 358.5C962 357.119 960.882 356 959.503 356ZM959.503 400H959.49C958.111 400 957 401.119 957 402.502C957 403.881 958.125 405 959.503 405C960.882 405 962 403.881 962 402.502C962 401.119 960.882 400 959.503 400ZM959.503 385H959.49C958.111 385 957 386.119 957 387.5C957 388.881 958.125 390 959.503 390C960.882 390 962 388.881 962 387.5C962 386.119 960.882 385 959.503 385ZM959.503 371H959.49C958.111 371 957 372.118 957 373.5C957 374.879 958.125 376 959.503 376C960.882 376 962 374.879 962 373.5C962 372.118 960.882 371 959.503 371ZM959.503 415H959.49C958.111 415 957 416.118 957 417.501C957 418.88 958.125 420 959.503 420C960.882 420 962 418.88 962 417.501C962 416.118 960.882 415 959.503 415ZM925.503 390C926.882 390 928 388.881 928 387.5C928 386.119 926.882 385 925.503 385H925.492C924.111 385 923 386.119 923 387.5C923 388.881 924.125 390 925.503 390ZM927.268 430.733C927.194 430.658 927.092 430.621 927.009 430.558C926.587 430.229 926.081 430 925.503 430H925.49C924.111 430 923 431.118 923 432.501C923 433.18 923.276 433.79 923.716 434.242C923.718 434.243 923.718 434.245 923.72 434.245C924.174 434.71 924.804 435 925.503 435C925.636 435 925.749 434.946 925.876 434.925C925.878 434.925 925.879 434.924 925.881 434.924C926.471 434.832 926.985 434.561 927.36 434.131C927.421 434.065 927.456 433.984 927.509 433.911C927.622 433.75 927.743 433.597 927.817 433.412C927.929 433.135 927.995 432.833 927.997 432.511C927.997 432.508 928 432.506 928 432.501C928 431.866 927.744 431.303 927.356 430.862C927.321 430.821 927.306 430.769 927.268 430.733ZM992.53 360.803C992.83 360.93 993.159 361 993.504 361C993.869 361 994.209 360.914 994.521 360.773C994.531 360.768 994.538 360.759 994.548 360.754C994.853 360.612 995.116 360.412 995.338 360.164C995.741 359.722 996 359.145 996 358.501C996 357.121 994.882 356 993.504 356H993.491C992.111 356 991 357.121 991 358.501C991 359.535 991.632 360.424 992.53 360.803ZM993.504 376C994.882 376 996 374.879 996 373.5C996 372.118 994.882 371 993.504 371H993.491C992.111 371 991 372.118 991 373.5C991 374.879 992.123 376 993.504 376ZM993.504 390C994.882 390 996 388.881 996 387.5C996 386.119 994.882 385 993.504 385H993.491C992.111 385 991 386.119 991 387.5C991 388.881 992.123 390 993.504 390ZM942.503 356H942.492C941.113 356 940 357.119 940 358.5C940 359.879 941.125 361 942.503 361C943.882 361 945 359.879 945 358.5C945 357.119 943.882 356 942.503 356ZM942.503 341H942.492C941.113 341 940 342.119 940 343.5C940 344.881 941.125 346 942.503 346C943.882 346 945 344.881 945 343.5C945 342.119 943.882 341 942.503 341ZM942.503 326H942.492C941.113 326 940 327.119 940 328.5C940 329.881 941.125 331 942.503 331C943.882 331 945 329.881 945 328.5C945 327.119 943.882 326 942.503 326ZM925.503 420C926.882 420 928 418.88 928 417.501C928 416.118 926.882 415 925.503 415H925.492C924.111 415 923 416.118 923 417.501C923 418.88 924.125 420 925.503 420ZM925.503 405C926.882 405 928 403.881 928 402.502C928 401.119 926.882 400 925.503 400H925.492C924.111 400 923 401.119 923 402.502C923 403.881 924.125 405 925.503 405ZM942.503 371H942.492C941.113 371 940 372.118 940 373.5C940 374.879 941.125 376 942.503 376C943.882 376 945 374.879 945 373.5C945 372.118 943.882 371 942.503 371ZM959.503 341H959.49C958.111 341 957 342.119 957 343.5C957 344.881 958.125 346 959.503 346C960.882 346 962 344.881 962 343.5C962 342.119 960.882 341 959.503 341ZM942.503 415H942.492C941.113 415 940 416.118 940 417.501C940 418.88 941.125 420 942.503 420C943.882 420 945 418.88 945 417.501C945 416.118 943.882 415 942.503 415ZM942.503 430H942.492C941.113 430 940 431.12 940 432.501C940 433.882 941.125 435 942.503 435C943.882 435 945 433.882 945 432.501C945 431.12 943.882 430 942.503 430ZM942.503 400H942.492C941.113 400 940 401.119 940 402.502C940 403.881 941.125 405 942.503 405C943.882 405 945 403.881 945 402.502C945 401.119 943.882 400 942.503 400ZM942.503 385H942.492C941.113 385 940 386.119 940 387.5C940 388.881 941.125 390 942.503 390C943.882 390 945 388.881 945 387.5C945 386.119 943.882 385 942.503 385Z" fill="#130D3A"/>
<mask id="mask0_672_2241" style="mask-type:luminance" maskUnits="userSpaceOnUse" x="1422" y="109" width="11" height="78">
<path fill-rule="evenodd" clip-rule="evenodd" d="M1422.09 109.738H1432.21V186.354H1422.09V109.738Z" fill="white"/>
</mask>
<g mask="url(#mask0_672_2241)">
<path fill-rule="evenodd" clip-rule="evenodd" d="M1422.09 185.03C1422.09 181.348 1424.3 179.501 1426.24 177.87C1428.04 176.371 1429.45 175.188 1429.45 172.709C1429.45 170.229 1428.04 169.045 1426.24 167.543C1424.3 165.913 1422.09 164.067 1422.09 160.383C1422.09 156.703 1424.3 154.857 1426.24 153.227C1428.04 151.728 1429.45 150.543 1429.45 148.066C1429.45 145.586 1428.04 144.401 1426.24 142.9C1424.3 141.269 1422.09 139.422 1422.09 135.737C1422.09 132.052 1424.3 130.202 1426.24 128.571C1428.03 127.07 1429.45 125.882 1429.45 123.4C1429.45 120.918 1428.03 119.731 1426.24 118.23C1424.3 116.598 1422.09 114.749 1422.09 111.063C1422.09 110.332 1422.71 109.738 1423.47 109.738C1424.23 109.738 1424.85 110.332 1424.85 111.063C1424.85 113.546 1426.27 114.733 1428.06 116.234C1430 117.865 1432.21 119.713 1432.21 123.4C1432.21 127.085 1430 128.935 1428.06 130.566C1426.27 132.068 1424.85 133.255 1424.85 135.737C1424.85 138.217 1426.27 139.404 1428.06 140.903C1430 142.534 1432.21 144.381 1432.21 148.066C1432.21 151.748 1430 153.594 1428.06 155.224C1426.27 156.723 1424.85 157.908 1424.85 160.383C1424.85 162.864 1426.27 164.047 1428.06 165.548C1430 167.177 1432.21 169.026 1432.21 172.709C1432.21 176.391 1430 178.239 1428.06 179.868C1426.27 181.368 1424.85 182.553 1424.85 185.03C1424.85 185.76 1424.23 186.355 1423.47 186.355C1422.71 186.355 1422.09 185.76 1422.09 185.03Z" fill="#F64B4B"/>
</g>
<path fill-rule="evenodd" clip-rule="evenodd" d="M1408 183.668C1408 179.967 1410.18 178.111 1412.1 176.473C1413.87 174.966 1415.27 173.777 1415.27 171.286C1415.27 168.793 1413.87 167.603 1412.1 166.094C1410.18 164.457 1408 162.601 1408 158.899C1408 155.199 1410.18 153.345 1412.1 151.705C1413.87 150.2 1415.27 149.009 1415.27 146.52C1415.27 144.027 1413.87 142.835 1412.1 141.326C1410.18 139.689 1408 137.831 1408 134.129C1408 130.424 1410.18 128.567 1412.1 126.927C1413.87 125.417 1415.27 124.225 1415.27 121.73C1415.27 119.234 1413.87 118.043 1412.1 116.533C1410.18 114.894 1408 113.035 1408 109.332C1408 108.595 1408.61 108 1409.36 108C1410.12 108 1410.73 108.595 1410.73 109.332C1410.73 111.826 1412.13 113.018 1413.9 114.529C1415.82 116.168 1418 118.025 1418 121.73C1418 125.434 1415.82 127.293 1413.9 128.932C1412.13 130.442 1410.73 131.635 1410.73 134.129C1410.73 136.622 1412.13 137.813 1413.9 139.321C1415.82 140.959 1418 142.816 1418 146.52C1418 150.22 1415.82 152.074 1413.9 153.713C1412.13 155.22 1410.73 156.409 1410.73 158.899C1410.73 161.39 1412.13 162.581 1413.9 164.089C1415.82 165.727 1418 167.584 1418 171.286C1418 174.986 1415.82 176.844 1413.9 178.48C1412.13 179.987 1410.73 181.177 1410.73 183.668C1410.73 184.403 1410.12 185 1409.36 185C1408.61 185 1408 184.403 1408 183.668Z" fill="#F64B4B"/>
<path fill-rule="evenodd" clip-rule="evenodd" d="M1281.31 726.593C1290.84 749.039 1312.84 765.145 1338.97 766.058C1374.84 767.311 1404.93 739.458 1406.18 703.847C1406.66 689.878 1402.64 676.79 1395.4 665.966L1389.68 669.007C1396.41 678.85 1400.17 690.826 1399.72 703.622C1398.6 735.694 1371.5 760.778 1339.19 759.65C1315.44 758.821 1295.49 744.057 1287.03 723.553L1281.31 726.593Z" fill="#68D585"/>
<path fill-rule="evenodd" clip-rule="evenodd" d="M1299.89 728.822C1308.41 741.701 1322.9 750.424 1339.62 751.008C1366.95 751.962 1389.88 730.794 1390.82 703.728C1391.47 685.236 1381.69 668.775 1366.71 659.897L1362.11 664.637C1375.87 672.162 1384.96 686.89 1384.38 703.503C1383.56 727.049 1363.62 745.463 1339.84 744.633C1324.77 744.106 1311.77 735.969 1304.48 724.083L1299.89 728.822Z" fill="#161C2D"/>
</svg>
